<svg xmlns="http://www.w3.org/2000/svg" width="359" height="101" viewBox="0 0 359 101" fill="none"><path d="M153.668 86.3272H108.801V17.7691H124.079V71.726H153.668V86.3272Z" fill="white"></path><path d="M174.086 86.3272H159.388V38.2688H174.086V86.3272ZM160.645 29.6628C158.969 27.9867 158.131 25.9561 158.131 23.5709C158.131 21.1857 158.969 19.155 160.645 17.479C162.321 15.8029 164.319 14.9648 166.64 14.9648C169.025 14.9648 171.056 15.8029 172.732 17.479C174.473 19.155 175.343 21.1857 175.343 23.5709C175.343 25.9561 174.473 27.9867 172.732 29.6628C171.056 31.3389 169.025 32.1769 166.64 32.1769C164.319 32.1769 162.321 31.3389 160.645 29.6628Z" fill="white"></path><path d="M195.205 86.3272H180.507V38.2688H194.528V43.7805C195.689 41.7177 197.591 40.0416 200.234 38.7523C202.941 37.463 205.649 36.8184 208.356 36.8184C215.254 36.8184 219.992 39.3325 222.571 44.3607C226.052 39.3325 231.015 36.8184 237.462 36.8184C242.49 36.8184 246.713 38.3655 250.129 41.4598C253.546 44.4896 255.254 49.0666 255.254 55.1908V86.3272H241.04V58.4785C241.04 56.0933 240.395 54.1593 239.106 52.6767C237.816 51.1295 235.915 50.3559 233.401 50.3559C230.886 50.3559 228.92 51.1617 227.502 52.7734C226.084 54.385 225.375 56.3189 225.375 58.5752V86.3272H210.87V58.4785C210.87 56.0933 210.193 54.1593 208.84 52.6767C207.55 51.1295 205.649 50.3559 203.134 50.3559C200.685 50.3559 198.751 51.1617 197.333 52.7734C195.914 54.385 195.205 56.3511 195.205 58.6719V86.3272Z" fill="white"></path><path d="M259.931 73.0797C259.931 69.0184 261.253 65.763 263.896 63.3133C266.539 60.7992 269.955 59.2198 274.146 58.5752L285.459 56.8346C287.78 56.5123 288.94 55.4164 288.94 53.5469C288.94 52.0642 288.296 50.8394 287.006 49.8724C285.781 48.841 284.073 48.3253 281.881 48.3253C279.432 48.3253 277.465 49.0344 275.983 50.4526C274.565 51.8064 273.791 53.4502 273.662 55.3842L260.898 52.7734C261.22 48.7765 263.187 45.1343 266.797 41.8466C270.471 38.4944 275.532 36.8184 281.978 36.8184C289.262 36.8184 294.613 38.5589 298.03 42.04C301.511 45.5211 303.251 49.9691 303.251 55.3842V78.8815C303.251 81.9114 303.445 84.3933 303.831 86.3272H290.584C290.262 85.0379 290.101 83.2329 290.101 80.9122C287.329 85.4247 282.816 87.681 276.563 87.681C271.47 87.681 267.409 86.2627 264.379 83.4263C261.414 80.5254 259.931 77.0765 259.931 73.0797ZM280.141 77.0443C282.655 77.0443 284.75 76.3029 286.426 74.8203C288.102 73.3376 288.94 70.8879 288.94 67.4713V65.344L279.851 66.7944C276.241 67.3746 274.436 69.1474 274.436 72.1127C274.436 73.4665 274.887 74.6269 275.789 75.5938C276.756 76.5608 278.207 77.0443 280.141 77.0443Z" fill="white"></path><path d="M358.186 98.3176H308.87V86.3272H358.186V98.3176Z" fill="white"></path><path d="M64.8876 34.8261L28.568 44.9723L62.3702 64.23C67.0336 55.1464 67.4107 43.9551 64.8876 34.8261Z" fill="url(#paint0_linear_61_38)"></path><path d="M47.3627 12.8492L31.1993 40.4751L63.4001 30.5521C60.1981 23.3379 54.7539 17.0601 47.3627 12.8492Z" fill="url(#paint1_linear_61_38)"></path><path d="M60.0732 68.0611L26.3127 48.8271L36.7568 84.7588C45.8041 82.4092 54.4381 76.2472 60.0732 68.0611Z" fill="url(#paint2_linear_61_38)"></path><path d="M23.6814 53.3243L7.51793 80.9501C14.9091 85.161 23.9035 86.2525 31.8359 85.3817L23.6814 53.3243Z" fill="url(#paint3_linear_61_38)"></path><path d="M54.8806 -1.18543e-06C81.1296 14.9545 89.679 47.8222 74.5241 73.7242C59.3693 99.6261 26.249 108.754 5.24759e-06 93.7994L5.26254 84.8049C26.1179 96.6866 53.1643 89.4677 65.4127 68.5332C77.6612 47.5988 70.4735 20.8761 49.6181 8.99446L54.8806 -1.18543e-06Z" fill="url(#paint4_linear_61_38)"></path><defs><linearGradient id="paint0_linear_61_38" x1="82" y1="0" x2="77.7928" y2="104.143" gradientUnits="userSpaceOnUse"><stop stop-color="#CFFA53"></stop><stop offset="1" stop-color="#5BDF7B"></stop></linearGradient><linearGradient id="paint1_linear_61_38" x1="82" y1="0" x2="77.7928" y2="104.143" gradientUnits="userSpaceOnUse"><stop stop-color="#CFFA53"></stop><stop offset="1" stop-color="#5BDF7B"></stop></linearGradient><linearGradient id="paint2_linear_61_38" x1="82" y1="0" x2="77.7928" y2="104.143" gradientUnits="userSpaceOnUse"><stop stop-color="#CFFA53"></stop><stop offset="1" stop-color="#5BDF7B"></stop></linearGradient><linearGradient id="paint3_linear_61_38" x1="82" y1="0" x2="77.7928" y2="104.143" gradientUnits="userSpaceOnUse"><stop stop-color="#CFFA53"></stop><stop offset="1" stop-color="#5BDF7B"></stop></linearGradient><linearGradient id="paint4_linear_61_38" x1="82" y1="0" x2="77.7928" y2="104.143" gradientUnits="userSpaceOnUse"><stop stop-color="#CFFA53"></stop><stop offset="1" stop-color="#5BDF7B"></stop></linearGradient></defs></svg>