<svg xmlns="http://www.w3.org/2000/svg" width="278" height="57" viewBox="0 0 278 57" fill="none"><rect x="1" y="1" width="276" height="55" rx="27.5" stroke="url(#paint0_linear_225_218)" stroke-width="2"></rect><path d="M31.9849 20.966H37.5029C39.0106 20.966 40.2016 21.3655 41.0761 22.1646C41.9505 22.9636 42.3878 24.0039 42.3878 25.2855C42.3878 26.1147 42.1691 26.8383 41.7319 27.4565C41.2947 28.0596 40.7218 28.4892 40.0132 28.7455C40.8725 28.9717 41.5661 29.4315 42.0938 30.1251C42.6214 30.8186 42.8853 31.6327 42.8853 32.5675C42.8853 33.8641 42.4254 34.927 41.5058 35.7562C40.5861 36.5854 39.3875 37 37.91 37H31.9849V20.966ZM34.6761 27.7505H37.1411C37.9251 27.7505 38.5432 27.5469 38.9955 27.1399C39.4478 26.7328 39.674 26.19 39.674 25.5116C39.674 24.8181 39.4403 24.2753 38.9729 23.8833C38.5206 23.4763 37.8874 23.2727 37.0732 23.2727H34.6761V27.7505ZM34.6761 34.6933H37.4351C38.2492 34.6933 38.8975 34.4897 39.38 34.0827C39.8775 33.6605 40.1263 33.0952 40.1263 32.3865C40.1263 31.6779 39.8926 31.1126 39.4252 30.6904C38.9729 30.2532 38.3397 30.0346 37.5255 30.0346H34.6761V34.6933ZM51.1961 25.9187V28.5872C50.8946 28.542 50.6081 28.5194 50.3367 28.5194C48.3617 28.5194 47.3742 29.5974 47.3742 31.7533V37H44.7508V25.9865H47.3063V27.7505C47.5626 27.1625 47.9772 26.7027 48.5502 26.371C49.1231 26.0242 49.7714 25.8508 50.495 25.8508C50.7363 25.8508 50.97 25.8734 51.1961 25.9187ZM52.0512 34.0148C52.0512 33.0801 52.3528 32.3338 52.9558 31.7759C53.574 31.203 54.3806 30.8412 55.3756 30.6904L58.2025 30.2607C58.7453 30.1854 59.0166 29.9215 59.0166 29.4692C59.0166 28.9717 58.8433 28.5722 58.4965 28.2706C58.1497 27.954 57.6296 27.7957 56.9361 27.7957C56.2727 27.7957 55.745 27.9842 55.353 28.3611C54.961 28.7229 54.7349 29.1978 54.6746 29.7858L52.2774 29.2431C52.3829 28.248 52.8578 27.4037 53.7021 26.7102C54.5464 26.0016 55.6169 25.6473 56.9134 25.6473C58.5116 25.6473 59.6875 26.0317 60.4414 26.8007C61.2103 27.5696 61.5947 28.5571 61.5947 29.7632V35.236C61.5947 35.9597 61.64 36.5477 61.7304 37H59.288C59.2126 36.7739 59.1749 36.3065 59.1749 35.5979C58.4513 36.7588 57.3205 37.3392 55.7827 37.3392C54.667 37.3392 53.7624 37.0151 53.0689 36.3668C52.3905 35.7034 52.0512 34.9194 52.0512 34.0148ZM56.2802 35.2813C57.0944 35.2813 57.7502 35.0627 58.2477 34.6254C58.7603 34.1731 59.0166 33.4419 59.0166 32.4318V31.9342L56.1445 32.3639C55.1646 32.5298 54.6746 33.0273 54.6746 33.8565C54.6746 34.2485 54.8178 34.5877 55.1042 34.8742C55.3907 35.1456 55.7827 35.2813 56.2802 35.2813ZM66.7108 30.6452V37H64.0875V25.9865H66.643V27.4565C66.9898 26.8534 67.4496 26.4087 68.0225 26.1222C68.6105 25.8207 69.2362 25.6699 69.8996 25.6699C71.1961 25.6699 72.1837 26.077 72.8621 26.8911C73.5406 27.7053 73.8798 28.7531 73.8798 30.0346V37H71.2565V30.4869C71.2565 29.7481 71.0755 29.1601 70.7137 28.7229C70.3519 28.2706 69.7789 28.0445 68.995 28.0445C68.2713 28.0445 67.7059 28.2932 67.2988 28.7908C66.9068 29.2732 66.7108 29.8914 66.7108 30.6452ZM78.159 31.4593C78.159 32.5147 78.4303 33.3665 78.9731 34.0148C79.5159 34.648 80.232 34.9647 81.1215 34.9647C81.9809 34.9647 82.682 34.6405 83.2247 33.9922C83.7675 33.3439 84.0388 32.4921 84.0388 31.4367C84.0388 30.3964 83.775 29.5672 83.2473 28.9491C82.7196 28.3309 82.0186 28.0219 81.1441 28.0219C80.2697 28.0219 79.5535 28.3385 78.9957 28.9717C78.4379 29.5898 78.159 30.419 78.159 31.4593ZM86.5717 20.6268V34.9873C86.5717 35.726 86.6094 36.3969 86.6848 37H84.1745C84.0992 36.5779 84.0615 36.1029 84.0615 35.5753C83.7901 36.0728 83.3679 36.4799 82.795 36.7965C82.2221 37.1131 81.5663 37.2714 80.8275 37.2714C79.2596 37.2714 77.9856 36.7211 77.0056 35.6205C76.0256 34.5199 75.5356 33.1328 75.5356 31.4593C75.5356 29.8461 76.0256 28.4817 77.0056 27.366C78.0007 26.2504 79.2596 25.6925 80.7823 25.6925C81.6567 25.6925 82.3578 25.8508 82.8855 26.1674C83.4282 26.484 83.8052 26.8534 84.0162 27.2756V20.6268H86.5717ZM97.2372 37H94.4781V20.966H97.2372V37ZM102.778 37H100.177V25.9865H102.687V27.3886C102.989 26.8459 103.441 26.4237 104.044 26.1222C104.662 25.8207 105.295 25.6699 105.944 25.6699C106.682 25.6699 107.346 25.8357 107.934 26.1674C108.522 26.4991 108.959 26.9816 109.246 27.6148C110.014 26.3182 111.205 25.6699 112.819 25.6699C113.904 25.6699 114.824 26.0242 115.578 26.7328C116.332 27.4414 116.708 28.4817 116.708 29.8537V37H114.176V30.2834C114.176 29.6049 113.995 29.0621 113.633 28.6551C113.286 28.2329 112.758 28.0219 112.05 28.0219C111.371 28.0219 110.821 28.2555 110.399 28.7229C109.977 29.1903 109.766 29.7708 109.766 30.4643V37H107.188V30.2834C107.188 29.6049 107.007 29.0621 106.645 28.6551C106.298 28.2329 105.77 28.0219 105.062 28.0219C104.368 28.0219 103.81 28.2555 103.388 28.7229C102.981 29.1752 102.778 29.7557 102.778 30.4643V37ZM121.843 41.2968H119.242V25.9865H121.775V27.4791C122.062 26.9816 122.514 26.567 123.132 26.2353C123.75 25.9036 124.466 25.7378 125.281 25.7378C126.864 25.7378 128.107 26.2805 129.012 27.366C129.917 28.4365 130.369 29.8084 130.369 31.4819C130.369 33.1555 129.894 34.5425 128.944 35.6431C127.994 36.7286 126.743 37.2714 125.19 37.2714C124.436 37.2714 123.765 37.1282 123.177 36.8417C122.589 36.5552 122.145 36.1934 121.843 35.7562V41.2968ZM127.746 31.4819C127.746 30.4567 127.474 29.6351 126.931 29.0169C126.389 28.3837 125.673 28.0671 124.783 28.0671C123.909 28.0671 123.192 28.3837 122.635 29.0169C122.092 29.6351 121.82 30.4567 121.82 31.4819C121.82 32.5222 122.092 33.359 122.635 33.9922C123.192 34.6254 123.909 34.942 124.783 34.942C125.657 34.942 126.366 34.6254 126.909 33.9922C127.467 33.359 127.746 32.5222 127.746 31.4819ZM134.836 37H132.212V20.6268H134.836V37ZM139.373 30.2834H144.778C144.748 29.5898 144.499 29.0094 144.032 28.542C143.579 28.0746 142.923 27.8409 142.064 27.8409C141.28 27.8409 140.647 28.0897 140.164 28.5872C139.682 29.0697 139.418 29.6351 139.373 30.2834ZM145.072 33.1555L147.288 33.8565C146.972 34.8667 146.376 35.7034 145.502 36.3668C144.642 37.0151 143.579 37.3392 142.313 37.3392C140.745 37.3392 139.411 36.804 138.31 35.7336C137.224 34.6631 136.682 33.2308 136.682 31.4367C136.682 29.7481 137.209 28.3611 138.265 27.2756C139.335 26.19 140.594 25.6473 142.041 25.6473C143.73 25.6473 145.049 26.1674 145.999 27.2077C146.949 28.2329 147.424 29.62 147.424 31.3689C147.424 31.8363 147.401 32.1152 147.356 32.2056H139.305C139.335 33.0348 139.637 33.7208 140.21 34.2636C140.798 34.8063 141.499 35.0777 142.313 35.0777C143.73 35.0777 144.65 34.437 145.072 33.1555ZM151.853 37H149.252V25.9865H151.763V27.3886C152.064 26.8459 152.516 26.4237 153.119 26.1222C153.738 25.8207 154.371 25.6699 155.019 25.6699C155.758 25.6699 156.421 25.8357 157.009 26.1674C157.597 26.4991 158.034 26.9816 158.321 27.6148C159.09 26.3182 160.281 25.6699 161.894 25.6699C162.98 25.6699 163.899 26.0242 164.653 26.7328C165.407 27.4414 165.784 28.4817 165.784 29.8537V37H163.251V30.2834C163.251 29.6049 163.07 29.0621 162.708 28.6551C162.361 28.2329 161.834 28.0219 161.125 28.0219C160.447 28.0219 159.896 28.2555 159.474 28.7229C159.052 29.1903 158.841 29.7708 158.841 30.4643V37H156.263V30.2834C156.263 29.6049 156.082 29.0621 155.72 28.6551C155.373 28.2329 154.846 28.0219 154.137 28.0219C153.444 28.0219 152.886 28.2555 152.464 28.7229C152.057 29.1752 151.853 29.7557 151.853 30.4643V37ZM170.15 30.2834H175.555C175.524 29.5898 175.276 29.0094 174.808 28.542C174.356 28.0746 173.7 27.8409 172.841 27.8409C172.057 27.8409 171.424 28.0897 170.941 28.5872C170.459 29.0697 170.195 29.6351 170.15 30.2834ZM175.849 33.1555L178.065 33.8565C177.748 34.8667 177.153 35.7034 176.278 36.3668C175.419 37.0151 174.356 37.3392 173.089 37.3392C171.522 37.3392 170.187 36.804 169.087 35.7336C168.001 34.6631 167.458 33.2308 167.458 31.4367C167.458 29.7481 167.986 28.3611 169.041 27.2756C170.112 26.19 171.371 25.6473 172.818 25.6473C174.507 25.6473 175.826 26.1674 176.776 27.2077C177.726 28.2329 178.2 29.62 178.2 31.3689C178.2 31.8363 178.178 32.1152 178.133 32.2056H170.082C170.112 33.0348 170.413 33.7208 170.986 34.2636C171.574 34.8063 172.275 35.0777 173.089 35.0777C174.507 35.0777 175.426 34.437 175.849 33.1555ZM182.652 30.6452V37H180.029V25.9865H182.584V27.4565C182.931 26.8534 183.391 26.4087 183.964 26.1222C184.552 25.8207 185.178 25.6699 185.841 25.6699C187.138 25.6699 188.125 26.077 188.804 26.8911C189.482 27.7053 189.821 28.7531 189.821 30.0346V37H187.198V30.4869C187.198 29.7481 187.017 29.1601 186.655 28.7229C186.293 28.2706 185.72 28.0445 184.936 28.0445C184.213 28.0445 183.647 28.2932 183.24 28.7908C182.848 29.2732 182.652 29.8914 182.652 30.6452ZM195.661 22.6169V25.9865H197.945V28.3159H195.661V33.4268C195.661 33.9093 195.774 34.2636 196 34.4897C196.226 34.7008 196.58 34.8063 197.063 34.8063C197.364 34.8063 197.666 34.7762 197.968 34.7159V36.8869C197.576 37.0528 197.04 37.1357 196.362 37.1357C195.337 37.1357 194.53 36.8492 193.942 36.2763C193.354 35.6883 193.06 34.8817 193.06 33.8565V28.3159H191.025V25.9865H191.59C192.148 25.9865 192.57 25.8282 192.857 25.5116C193.143 25.195 193.286 24.7804 193.286 24.2678V22.6169H195.661ZM199.306 34.0148C199.306 33.0801 199.607 32.3338 200.21 31.7759C200.828 31.203 201.635 30.8412 202.63 30.6904L205.457 30.2607C206 30.1854 206.271 29.9215 206.271 29.4692C206.271 28.9717 206.098 28.5722 205.751 28.2706C205.404 27.954 204.884 27.7957 204.19 27.7957C203.527 27.7957 202.999 27.9842 202.607 28.3611C202.215 28.7229 201.989 29.1978 201.929 29.7858L199.532 29.2431C199.637 28.248 200.112 27.4037 200.956 26.7102C201.801 26.0016 202.871 25.6473 204.168 25.6473C205.766 25.6473 206.942 26.0317 207.696 26.8007C208.465 27.5696 208.849 28.5571 208.849 29.7632V35.236C208.849 35.9597 208.894 36.5477 208.985 37H206.542C206.467 36.7739 206.429 36.3065 206.429 35.5979C205.706 36.7588 204.575 37.3392 203.037 37.3392C201.921 37.3392 201.017 37.0151 200.323 36.3668C199.645 35.7034 199.306 34.9194 199.306 34.0148ZM203.535 35.2813C204.349 35.2813 205.004 35.0627 205.502 34.6254C206.015 34.1731 206.271 33.4419 206.271 32.4318V31.9342L203.399 32.3639C202.419 32.5298 201.929 33.0273 201.929 33.8565C201.929 34.2485 202.072 34.5877 202.359 34.8742C202.645 35.1456 203.037 35.2813 203.535 35.2813ZM214.622 22.6169V25.9865H216.906V28.3159H214.622V33.4268C214.622 33.9093 214.735 34.2636 214.961 34.4897C215.187 34.7008 215.542 34.8063 216.024 34.8063C216.326 34.8063 216.627 34.7762 216.929 34.7159V36.8869C216.537 37.0528 216.002 37.1357 215.323 37.1357C214.298 37.1357 213.491 36.8492 212.903 36.2763C212.315 35.6883 212.021 34.8817 212.021 33.8565V28.3159H209.986V25.9865H210.551C211.109 25.9865 211.531 25.8282 211.818 25.5116C212.104 25.195 212.247 24.7804 212.247 24.2678V22.6169H214.622ZM221.524 37H218.923V25.9865H221.524V37ZM219.014 23.318C218.682 22.9863 218.516 22.5867 218.516 22.1194C218.516 21.652 218.682 21.2525 219.014 20.9208C219.345 20.574 219.745 20.4006 220.212 20.4006C220.695 20.4006 221.102 20.5665 221.433 20.8981C221.765 21.2298 221.931 21.6369 221.931 22.1194C221.931 22.5867 221.765 22.9863 221.433 23.318C221.102 23.6496 220.695 23.8155 220.212 23.8155C219.745 23.8155 219.345 23.6496 219.014 23.318ZM226.876 34.0601C227.479 34.6782 228.21 34.9873 229.069 34.9873C229.929 34.9873 230.652 34.6782 231.24 34.0601C231.843 33.4419 232.145 32.5825 232.145 31.4819C232.145 30.3964 231.843 29.5521 231.24 28.9491C230.652 28.3309 229.929 28.0219 229.069 28.0219C228.21 28.0219 227.479 28.3309 226.876 28.9491C226.288 29.5521 225.994 30.3964 225.994 31.4819C225.994 32.5675 226.288 33.4268 226.876 34.0601ZM229.069 25.6473C230.728 25.6473 232.092 26.1976 233.163 27.2982C234.248 28.3988 234.791 29.7934 234.791 31.4819C234.791 33.1705 234.248 34.5727 233.163 35.6883C232.092 36.7889 230.728 37.3392 229.069 37.3392C227.426 37.3392 226.062 36.7889 224.976 35.6883C223.906 34.5727 223.37 33.1705 223.37 31.4819C223.37 29.7934 223.906 28.3988 224.976 27.2982C226.062 26.1976 227.426 25.6473 229.069 25.6473ZM239.271 30.6452V37H236.648V25.9865H239.203V27.4565C239.55 26.8534 240.01 26.4087 240.583 26.1222C241.171 25.8207 241.796 25.6699 242.46 25.6699C243.756 25.6699 244.744 26.077 245.422 26.8911C246.101 27.7053 246.44 28.7531 246.44 30.0346V37H243.817V30.4869C243.817 29.7481 243.636 29.1601 243.274 28.7229C242.912 28.2706 242.339 28.0445 241.555 28.0445C240.831 28.0445 240.266 28.2932 239.859 28.7908C239.467 29.2732 239.271 29.8914 239.271 30.6452Z" fill="url(#paint1_linear_225_218)"></path><defs><linearGradient id="paint0_linear_225_218" x1="-1.56865e-06" y1="28.5" x2="80.8313" y2="170.16" gradientUnits="userSpaceOnUse"><stop stop-color="#A9E207"></stop><stop offset="1" stop-color="#27CE50"></stop></linearGradient><linearGradient id="paint1_linear_225_218" x1="30" y1="28.5" x2="47.3031" y2="93.0444" gradientUnits="userSpaceOnUse"><stop stop-color="#A9E207"></stop><stop offset="1" stop-color="#27CE50"></stop></linearGradient></defs></svg>