<svg xmlns="http://www.w3.org/2000/svg" width="191" height="57" viewBox="0 0 191 57" fill="none"><rect x="1" y="1" width="189" height="55" rx="27.5" stroke="url(#paint0_linear_225_216)" stroke-width="2"></rect><path d="M32.1825 20.966H37.7006C39.2082 20.966 40.3993 21.3655 41.2737 22.1646C42.1482 22.9636 42.5854 24.0039 42.5854 25.2855C42.5854 26.1147 42.3668 26.8383 41.9296 27.4565C41.4924 28.0596 40.9194 28.4892 40.2108 28.7455C41.0702 28.9717 41.7637 29.4315 42.2914 30.1251C42.8191 30.8186 43.0829 31.6327 43.0829 32.5675C43.0829 33.8641 42.6231 34.927 41.7034 35.7562C40.7838 36.5854 39.5852 37 38.1077 37H32.1825V20.966ZM34.8737 27.7505H37.3387C38.1227 27.7505 38.7409 27.5469 39.1932 27.1399C39.6455 26.7328 39.8716 26.19 39.8716 25.5116C39.8716 24.8181 39.6379 24.2753 39.1706 23.8833C38.7183 23.4763 38.085 23.2727 37.2709 23.2727H34.8737V27.7505ZM34.8737 34.6933H37.6327C38.4469 34.6933 39.0952 34.4897 39.5776 34.0827C40.0752 33.6605 40.3239 33.0952 40.3239 32.3865C40.3239 31.6779 40.0902 31.1126 39.6229 30.6904C39.1706 30.2532 38.5373 30.0346 37.7232 30.0346H34.8737V34.6933ZM51.3938 25.9187V28.5872C51.0922 28.542 50.8058 28.5194 50.5344 28.5194C48.5594 28.5194 47.5718 29.5974 47.5718 31.7533V37H44.9485V25.9865H47.504V27.7505C47.7603 27.1625 48.1749 26.7027 48.7478 26.371C49.3207 26.0242 49.969 25.8508 50.6927 25.8508C50.9339 25.8508 51.1676 25.8734 51.3938 25.9187ZM52.2489 34.0148C52.2489 33.0801 52.5504 32.3338 53.1535 31.7759C53.7716 31.203 54.5782 30.8412 55.5733 30.6904L58.4002 30.2607C58.9429 30.1854 59.2143 29.9215 59.2143 29.4692C59.2143 28.9717 59.0409 28.5722 58.6942 28.2706C58.3474 27.954 57.8272 27.7957 57.1337 27.7957C56.4704 27.7957 55.9427 27.9842 55.5507 28.3611C55.1587 28.7229 54.9325 29.1978 54.8722 29.7858L52.475 29.2431C52.5806 28.248 53.0555 27.4037 53.8998 26.7102C54.7441 26.0016 55.8145 25.6473 57.1111 25.6473C58.7092 25.6473 59.8852 26.0317 60.639 26.8007C61.4079 27.5696 61.7924 28.5571 61.7924 29.7632V35.236C61.7924 35.9597 61.8376 36.5477 61.9281 37H59.4857C59.4103 36.7739 59.3726 36.3065 59.3726 35.5979C58.6489 36.7588 57.5182 37.3392 55.9804 37.3392C54.8647 37.3392 53.9601 37.0151 53.2666 36.3668C52.5881 35.7034 52.2489 34.9194 52.2489 34.0148ZM56.4779 35.2813C57.292 35.2813 57.9479 35.0627 58.4454 34.6254C58.958 34.1731 59.2143 33.4419 59.2143 32.4318V31.9342L56.3422 32.3639C55.3622 32.5298 54.8722 33.0273 54.8722 33.8565C54.8722 34.2485 55.0155 34.5877 55.3019 34.8742C55.5884 35.1456 55.9804 35.2813 56.4779 35.2813ZM66.9085 30.6452V37H64.2852V25.9865H66.8407V27.4565C67.1874 26.8534 67.6473 26.4087 68.2202 26.1222C68.8082 25.8207 69.4338 25.6699 70.0972 25.6699C71.3938 25.6699 72.3813 26.077 73.0598 26.8911C73.7382 27.7053 74.0774 28.7531 74.0774 30.0346V37H71.4541V30.4869C71.4541 29.7481 71.2732 29.1601 70.9114 28.7229C70.5495 28.2706 69.9766 28.0445 69.1926 28.0445C68.4689 28.0445 67.9036 28.2932 67.4965 28.7908C67.1045 29.2732 66.9085 29.8914 66.9085 30.6452ZM78.3566 31.4593C78.3566 32.5147 78.628 33.3665 79.1708 34.0148C79.7135 34.648 80.4297 34.9647 81.3192 34.9647C82.1786 34.9647 82.8796 34.6405 83.4224 33.9922C83.9651 33.3439 84.2365 32.4921 84.2365 31.4367C84.2365 30.3964 83.9727 29.5672 83.445 28.9491C82.9173 28.3309 82.2162 28.0219 81.3418 28.0219C80.4674 28.0219 79.7512 28.3385 79.1934 28.9717C78.6355 29.5898 78.3566 30.419 78.3566 31.4593ZM86.7694 20.6268V34.9873C86.7694 35.726 86.8071 36.3969 86.8825 37H84.3722C84.2968 36.5779 84.2591 36.1029 84.2591 35.5753C83.9877 36.0728 83.5656 36.4799 82.9927 36.7965C82.4198 37.1131 81.7639 37.2714 81.0252 37.2714C79.4572 37.2714 78.1832 36.7211 77.2033 35.6205C76.2233 34.5199 75.7333 33.1328 75.7333 31.4593C75.7333 29.8461 76.2233 28.4817 77.2033 27.366C78.1983 26.2504 79.4572 25.6925 80.98 25.6925C81.8544 25.6925 82.5555 25.8508 83.0831 26.1674C83.6259 26.484 84.0028 26.8534 84.2139 27.2756V20.6268H86.7694ZM97.3896 34.5124H100.239C101.717 34.5124 102.93 34.045 103.88 33.1102C104.845 32.1604 105.327 30.796 105.327 29.0169C105.327 27.2228 104.853 25.8508 103.903 24.901C102.953 23.9361 101.739 23.4536 100.262 23.4536H97.3896V34.5124ZM100.33 37H94.6758V20.966H100.352C102.614 20.966 104.476 21.6821 105.938 23.1144C107.416 24.5467 108.154 26.5142 108.154 29.0169C108.154 31.5046 107.416 33.457 105.938 34.8742C104.461 36.2914 102.591 37 100.33 37ZM111.968 30.2834H117.373C117.343 29.5898 117.094 29.0094 116.627 28.542C116.174 28.0746 115.518 27.8409 114.659 27.8409C113.875 27.8409 113.242 28.0897 112.759 28.5872C112.277 29.0697 112.013 29.6351 111.968 30.2834ZM117.667 33.1555L119.883 33.8565C119.567 34.8667 118.971 35.7034 118.097 36.3668C117.237 37.0151 116.174 37.3392 114.908 37.3392C113.34 37.3392 112.006 36.804 110.905 35.7336C109.82 34.6631 109.277 33.2308 109.277 31.4367C109.277 29.7481 109.804 28.3611 110.86 27.2756C111.93 26.19 113.189 25.6473 114.636 25.6473C116.325 25.6473 117.644 26.1674 118.594 27.2077C119.544 28.2329 120.019 29.62 120.019 31.3689C120.019 31.8363 119.996 32.1152 119.951 32.2056H111.9C111.93 33.0348 112.232 33.7208 112.805 34.2636C113.393 34.8063 114.094 35.0777 114.908 35.0777C116.325 35.0777 117.245 34.437 117.667 33.1555ZM120.875 34.0148L123.159 33.3816C123.204 33.9093 123.423 34.354 123.815 34.7159C124.207 35.0777 124.734 35.2586 125.398 35.2586C125.91 35.2586 126.31 35.138 126.596 34.8968C126.898 34.6556 127.049 34.354 127.049 33.9922C127.049 33.359 126.619 32.9519 125.76 32.771L124.131 32.4092C123.182 32.1981 122.45 31.8061 121.938 31.2332C121.425 30.6603 121.169 29.9818 121.169 29.1978C121.169 28.2329 121.561 27.4037 122.345 26.7102C123.129 26.0016 124.086 25.6473 125.217 25.6473C125.941 25.6473 126.581 25.7528 127.139 25.9639C127.697 26.175 128.127 26.4539 128.428 26.8007C128.745 27.1323 128.986 27.4565 129.152 27.7731C129.318 28.0897 129.423 28.4063 129.469 28.7229L127.252 29.3561C127.192 28.934 126.996 28.5571 126.664 28.2254C126.348 27.8786 125.865 27.7053 125.217 27.7053C124.765 27.7053 124.388 27.8334 124.086 28.0897C123.785 28.3309 123.634 28.6249 123.634 28.9717C123.634 29.5898 124.003 29.9743 124.742 30.1251L126.416 30.4643C127.441 30.6904 128.225 31.0975 128.767 31.6855C129.31 32.2735 129.582 32.9821 129.582 33.8113C129.582 34.731 129.212 35.5526 128.473 36.2763C127.75 36.9849 126.732 37.3392 125.42 37.3392C124.667 37.3392 123.988 37.2261 123.385 37C122.797 36.7739 122.33 36.4874 121.983 36.1406C121.651 35.7788 121.387 35.4245 121.191 35.0777C121.011 34.7159 120.905 34.3616 120.875 34.0148ZM134.105 37H131.505V25.9865H134.105V37ZM131.595 23.318C131.263 22.9863 131.098 22.5867 131.098 22.1194C131.098 21.652 131.263 21.2525 131.595 20.9208C131.927 20.574 132.326 20.4006 132.794 20.4006C133.276 20.4006 133.683 20.5665 134.015 20.8981C134.347 21.2298 134.512 21.6369 134.512 22.1194C134.512 22.5867 134.347 22.9863 134.015 23.318C133.683 23.6496 133.276 23.8155 132.794 23.8155C132.326 23.8155 131.927 23.6496 131.595 23.318ZM136.02 37.6106L138.439 36.9774C138.53 37.6709 138.824 38.2363 139.321 38.6735C139.834 39.1258 140.46 39.352 141.198 39.352C143.279 39.352 144.319 38.2514 144.319 36.0502V34.8968C144.063 35.3642 143.656 35.7486 143.098 36.0502C142.54 36.3517 141.884 36.5025 141.131 36.5025C139.653 36.5025 138.432 35.9974 137.467 34.9873C136.517 33.9771 136.042 32.6956 136.042 31.1427C136.042 29.6501 136.517 28.3837 137.467 27.3434C138.417 26.3031 139.638 25.783 141.131 25.783C142.744 25.783 143.829 26.3182 144.387 27.3886V25.9865H146.92V35.9597C146.92 37.588 146.46 38.9373 145.541 40.0078C144.621 41.0933 143.196 41.6361 141.266 41.6361C139.849 41.6361 138.658 41.2516 137.693 40.4827C136.728 39.7138 136.17 38.7564 136.02 37.6106ZM141.56 34.2636C142.405 34.2636 143.083 33.9847 143.596 33.4268C144.123 32.8539 144.387 32.0926 144.387 31.1427C144.387 30.208 144.123 29.4617 143.596 28.9038C143.068 28.3309 142.39 28.0445 141.56 28.0445C140.716 28.0445 140.022 28.3309 139.48 28.9038C138.952 29.4617 138.688 30.208 138.688 31.1427C138.688 32.0926 138.952 32.8539 139.48 33.4268C140.007 33.9847 140.701 34.2636 141.56 34.2636ZM152.073 30.6452V37H149.45V25.9865H152.005V27.4565C152.352 26.8534 152.812 26.4087 153.385 26.1222C153.973 25.8207 154.599 25.6699 155.262 25.6699C156.559 25.6699 157.546 26.077 158.225 26.8911C158.903 27.7053 159.242 28.7531 159.242 30.0346V37H156.619V30.4869C156.619 29.7481 156.438 29.1601 156.076 28.7229C155.714 28.2706 155.141 28.0445 154.357 28.0445C153.634 28.0445 153.068 28.2932 152.661 28.7908C152.269 29.2732 152.073 29.8914 152.073 30.6452Z" fill="url(#paint1_linear_225_216)"></path><defs><linearGradient id="paint0_linear_225_216" x1="-1.07774e-06" y1="28.5" x2="92.2949" y2="139.631" gradientUnits="userSpaceOnUse"><stop stop-color="#A9E207"></stop><stop offset="1" stop-color="#27CE50"></stop></linearGradient><linearGradient id="paint1_linear_225_216" x1="30" y1="28.5" x2="55.7408" y2="86.1995" gradientUnits="userSpaceOnUse"><stop stop-color="#A9E207"></stop><stop offset="1" stop-color="#27CE50"></stop></linearGradient></defs></svg>