<svg width="213" height="122" viewBox="0 0 213 122" fill="none" xmlns="http://www.w3.org/2000/svg">
<path d="M0.750185 15.1054C0.464503 14.5698 0.268096 14.1056 0.160965 13.7127C0.0538343 13.3199 0.000268877 12.8557 0.000268877 12.32C0.000268877 12.1415 0.000268877 11.9629 0.000268877 11.7844C0.0359792 11.6058 0.0895446 11.4451 0.160965 11.3023C0.268096 11.1595 0.410937 11.0523 0.589489 10.9809C0.803751 10.9095 1.07158 10.9273 1.39297 11.0345C1.60723 11.1059 1.82149 11.2487 2.03576 11.463C2.25002 11.6415 2.44642 11.8915 2.62498 12.2129C2.83924 12.4986 2.99993 12.7843 3.10706 13.07C3.24991 13.3556 3.35704 13.5878 3.42846 13.7663C4.24979 13.1235 5.14255 12.4807 6.10673 11.8379C7.07091 11.1595 8.08865 10.5702 9.15996 10.0703C10.267 9.53463 11.374 9.10611 12.481 8.78472C13.6237 8.46333 14.7129 8.30263 15.7485 8.30263C16.1056 8.30263 16.5341 8.33834 17.0341 8.40976C17.534 8.48118 17.9983 8.60617 18.4268 8.78472C18.891 8.96327 19.266 9.21324 19.5517 9.53463C19.873 9.82032 20.0337 10.1953 20.0337 10.6595C20.1409 11.5166 20.0337 12.3915 19.7124 13.2842C19.4267 14.1413 19.016 14.9805 18.4803 15.8018C17.9804 16.6231 17.3912 17.4266 16.7127 18.2122C16.0699 18.9979 15.4093 19.7478 14.7308 20.462C14.088 21.1762 13.4809 21.8368 12.9095 22.4439C12.3739 23.051 11.9632 23.5866 11.6775 24.0509C13.1417 23.0867 14.7129 22.3903 16.3913 21.9618C18.1054 21.4976 19.8195 21.2655 21.5336 21.2655C22.0692 21.2655 22.6406 21.3012 23.2477 21.3726C23.8905 21.4083 24.4797 21.5333 25.0153 21.7476C25.551 21.9618 25.9974 22.2654 26.3545 22.6582C26.7116 23.051 26.8901 23.6045 26.8901 24.3187C26.8901 25.0329 26.5509 26.0328 25.8724 27.3184C25.2296 28.5682 24.3725 29.9609 23.3012 31.4965C22.2656 32.9963 21.1051 34.5318 19.8195 36.1031C18.5696 37.6386 17.3555 39.0492 16.177 40.3348C14.9986 41.5846 13.9273 42.6202 12.9631 43.4416C12.0346 44.2272 11.374 44.62 10.9812 44.62L9.58848 43.9772C9.76703 43.2987 10.2134 42.4952 10.9276 41.5668C11.6418 40.6383 12.481 39.6741 13.4452 38.6742C14.4451 37.6743 15.4985 36.6209 16.6056 35.5139C17.7483 34.4069 18.8196 33.3355 19.8195 32.2999C20.8194 31.2643 21.6943 30.2645 22.4442 29.3003C23.1941 28.3004 23.6762 27.4076 23.8905 26.622C24.1404 25.8007 24.0512 25.1222 23.6226 24.5865C23.1941 24.0152 22.3192 23.5866 20.9979 23.301C19.6052 23.301 18.1411 23.5509 16.6056 24.0509C15.07 24.5151 13.6059 25.1936 12.2132 26.0864C10.8205 26.9791 9.57063 28.0504 8.46361 29.3003C7.3923 30.5144 6.60667 31.8893 6.10673 33.4248C6.10673 34.4247 6.17815 35.4067 6.32099 36.3709C6.49954 37.3351 6.67809 38.2993 6.85665 39.2635C7.0352 40.1919 7.19589 41.1382 7.33873 42.1024C7.51729 43.0666 7.60656 44.0308 7.60656 44.995C7.60656 45.7092 7.553 46.2984 7.44587 46.7626C7.33873 47.2269 6.89236 47.459 6.10673 47.459C6.03531 47.459 5.91032 47.459 5.73177 47.459C5.58893 47.4233 5.51751 47.3875 5.51751 47.3518L0.750185 15.1054ZM4.17837 18.4801C4.17837 19.8013 4.26765 21.2119 4.4462 22.7117C4.62475 24.1759 4.98186 25.5328 5.51751 26.7827C6.05316 26.3185 6.7138 25.7114 7.49943 24.9615C8.32077 24.1759 9.15996 23.3367 10.017 22.4439C10.9098 21.5511 11.7668 20.6048 12.5881 19.6049C13.4452 18.605 14.213 17.6409 14.8915 16.7124C15.6057 15.7839 16.1592 14.9269 16.552 14.1413C16.9805 13.3199 17.1948 12.6414 17.1948 12.1058C17.1948 11.6773 17.0519 11.3916 16.7663 11.2487C16.5163 11.1059 16.2127 11.0345 15.8556 11.0345C14.9986 11.0345 13.8916 11.213 12.5346 11.5701C11.2133 11.9272 9.92773 12.4272 8.67787 13.07C7.46372 13.7127 6.41027 14.4984 5.51751 15.4268C4.62475 16.3196 4.17837 17.3373 4.17837 18.4801ZM27.8693 22.2296V21.8011C27.8693 21.444 27.9943 21.194 28.2443 21.0512C28.5299 20.9084 28.8513 20.8369 29.2084 20.8369C29.4941 20.8369 29.7619 20.8727 30.0119 20.9441C30.2619 20.9798 30.4583 21.1762 30.6011 21.5333C30.7083 22.0689 30.8154 22.8189 30.9225 23.783C31.0297 24.7115 31.1546 25.7471 31.2975 26.8898C31.4403 28.0326 31.5832 29.2467 31.726 30.5323C31.9046 31.7821 32.0653 32.9784 32.2081 34.1212C32.3866 35.2282 32.5652 36.2281 32.7438 37.1208C32.9223 38.0136 33.1187 38.6921 33.333 39.1563C33.2258 35.7281 33.333 32.7642 33.6544 30.2645C33.9758 27.729 34.5828 25.6757 35.4756 24.1044C36.4041 22.4975 37.6539 21.3905 39.2252 20.7834C40.8321 20.1406 42.8319 19.9978 45.2245 20.3549C46.3315 20.3549 46.885 20.9441 46.885 22.1225C46.885 22.5867 46.5815 22.9081 45.9744 23.0867C45.3673 23.2295 44.6888 23.3367 43.9389 23.4081C43.189 23.4438 42.457 23.4974 41.7427 23.5688C41.0285 23.6402 40.5107 23.8188 40.1893 24.1044C38.9038 24.8186 37.9932 25.9257 37.4575 27.4255C36.9576 28.9253 36.6005 30.693 36.3862 32.7285C36.1719 34.764 36.0112 36.9959 35.9041 39.4242C35.8327 41.8167 35.6006 44.2808 35.2078 46.8162C35.2078 47.1733 35.0649 47.4411 34.7792 47.6197C34.4936 47.7982 34.1365 47.8875 33.7079 47.8875C33.3151 47.8875 32.9223 47.7982 32.5295 47.6197C32.1724 47.4411 31.8867 47.1733 31.6724 46.8162L27.8693 22.2296ZM63.1839 46.6555C63.0054 45.727 62.8447 44.62 62.7018 43.3344C62.5947 42.0131 62.4697 40.6919 62.3269 39.3706C62.184 38.0136 62.0055 36.7459 61.7912 35.5674C61.6127 34.389 61.327 33.4248 60.9342 32.6749C59.1129 36.3888 57.506 39.317 56.1133 41.4596C54.7206 43.5665 53.4886 45.0842 52.4173 46.0127C51.3817 46.9055 50.5068 47.334 49.7926 47.2983C49.0784 47.2626 48.4891 46.9412 48.0249 46.3341C47.5607 45.727 47.2214 44.9592 47.0072 44.0308C46.8286 43.0666 46.7036 42.1738 46.6322 41.3525C46.6322 40.5669 46.8108 39.4599 47.1679 38.0314C47.525 36.603 48.007 35.0496 48.6141 33.3713C49.2212 31.6572 49.9354 29.9252 50.7567 28.1754C51.6138 26.4256 52.5244 24.8365 53.4886 23.4081C54.4528 21.9797 55.4526 20.8012 56.4882 19.8728C57.5238 18.9443 58.5594 18.4801 59.595 18.4801C61.1306 18.2301 62.2555 18.5693 62.9697 19.4978C63.7196 20.3906 63.8624 21.9083 63.3982 24.0509C63.3982 26.4077 63.4875 28.4254 63.666 30.1038C63.8803 31.7821 64.0945 33.3891 64.3088 34.9247C64.5588 36.4602 64.773 38.0672 64.9516 39.7455C65.1658 41.4239 65.273 43.4416 65.273 45.7984C65.273 46.227 65.2194 46.6019 65.1123 46.9233C65.0409 47.209 64.6123 47.3518 63.8267 47.3518C63.7196 47.3518 63.5767 47.2626 63.3982 47.084C63.2553 46.9055 63.1839 46.7626 63.1839 46.6555ZM60.2914 22.7117C59.8986 22.1404 59.3629 22.0868 58.6844 22.551C58.0059 23.0153 57.2917 23.783 56.5418 24.8544C55.7919 25.9257 55.0241 27.2112 54.2385 28.7111C53.4529 30.2109 52.7208 31.7286 52.0423 33.2641C51.3638 34.7997 50.7746 36.2638 50.2747 37.6565C49.7747 39.0135 49.4355 40.1384 49.2569 41.0311C49.2569 42.3167 49.4533 43.0487 49.8461 43.2273C50.2389 43.3701 50.721 43.1559 51.2924 42.5845C51.8638 42.0131 52.5065 41.1918 53.2208 40.1205C53.9707 39.0492 54.6849 37.9065 55.3634 36.6923C56.0776 35.4782 56.7382 34.2997 57.3453 33.157C57.9881 32.0143 58.488 31.0858 58.8451 30.3716C59.1665 29.6217 59.4165 28.9253 59.595 28.2825C59.7736 27.6398 59.9164 27.0327 60.0236 26.4613C60.1664 25.8542 60.2378 25.2472 60.2378 24.6401C60.2735 24.033 60.2914 23.3902 60.2914 22.7117ZM68.6626 47.3518C68.2698 42.5309 67.9127 37.7101 67.5913 32.8892C67.3056 28.0326 66.9842 22.9974 66.6271 17.7837C66.6271 16.9267 67.0913 16.4981 68.0198 16.4981H68.4483C68.5555 16.4981 68.6805 16.641 68.8233 16.9267C68.9661 17.2123 69.109 17.748 69.2518 18.5336C69.4304 19.2835 69.6089 20.4441 69.7875 22.0154C70.0017 23.5509 70.2517 25.5686 70.5374 28.0683C70.8231 30.568 71.1445 33.6926 71.5016 37.4422C72.2515 35.0139 72.8407 32.6571 73.2692 30.3716C73.6978 28.0861 74.2513 26.0149 74.9298 24.158C75.6083 22.2654 76.5546 20.6048 77.7687 19.1764C79.0186 17.748 80.8041 16.6945 83.1253 16.0161C84.4108 16.2303 85.4464 17.0159 86.2321 18.3729C87.0177 19.6942 87.6426 21.3369 88.1069 23.301C88.5711 25.265 88.8925 27.4076 89.071 29.7288C89.2496 32.0143 89.3567 34.2104 89.3924 36.3174C89.4281 38.4243 89.446 40.3169 89.446 41.9953C89.446 43.638 89.4817 44.8164 89.5531 45.5306C89.446 45.8163 89.2853 46.0663 89.071 46.2805C88.8568 46.4948 88.6068 46.6555 88.3211 46.7626C88.0711 46.834 87.8212 46.8519 87.5712 46.8162C87.3212 46.7448 87.0891 46.5484 86.8748 46.227C86.8748 45.8341 86.8391 45.0307 86.7677 43.8165C86.6963 42.6024 86.607 41.1918 86.4999 39.5848C86.3928 37.9422 86.2678 36.2102 86.1249 34.389C86.0178 32.5321 85.9107 30.8001 85.8035 29.1932C85.7321 27.5505 85.6607 26.1221 85.5893 24.9079C85.5179 23.6938 85.4643 22.8903 85.4286 22.4975C84.6787 21.1762 83.9288 20.4263 83.1788 20.2477C82.4646 20.0692 81.7326 20.3013 80.9827 20.9441C80.2684 21.5869 79.5721 22.5689 78.8936 23.8902C78.2151 25.2115 77.5723 26.7113 76.9652 28.3897C76.3582 30.0323 75.7868 31.7643 75.2511 33.5855C74.7155 35.4067 74.2513 37.1744 73.8584 38.8885C73.4656 40.5669 73.1264 42.1024 72.8407 43.4951C72.5907 44.8521 72.43 45.9056 72.3586 46.6555C72.2515 46.9055 72.0194 47.1554 71.6623 47.4054C71.3409 47.6197 70.9838 47.7804 70.591 47.8875C70.2339 47.9946 69.8589 48.0303 69.4661 47.9946C69.109 47.9232 68.8412 47.7089 68.6626 47.3518ZM103.013 38.2457C102.656 39.067 102.192 40.0134 101.62 41.0847C101.085 42.156 100.442 43.1737 99.692 44.1379C98.9778 45.1021 98.1386 45.9234 97.1744 46.6019C96.2102 47.2804 95.1389 47.6197 93.9605 47.6197C93.4248 47.6197 92.9963 47.5661 92.6749 47.459C92.3892 47.3161 92.1214 47.1197 91.8714 46.8697C91.6572 46.6198 91.4429 46.3162 91.2286 45.9591C91.0501 45.602 90.818 45.2092 90.5323 44.7807C90.4252 43.0309 90.3537 41.1561 90.318 39.1563C90.318 37.1208 90.4252 35.1032 90.6394 33.1034C90.8537 31.0679 91.2108 29.1574 91.7107 27.3719C92.2464 25.5864 92.9785 24.0687 93.9069 22.8189C94.8711 21.569 96.0674 20.6762 97.4958 20.1406C98.9242 19.6049 100.656 19.5692 102.692 20.0335C102.799 19.0336 102.817 17.6944 102.745 16.0161C102.674 14.3377 102.567 12.57 102.424 10.7131C102.281 8.85614 102.138 7.07062 101.995 5.35653C101.852 3.60673 101.763 2.17831 101.727 1.07129C101.727 0.749901 101.87 0.517785 102.156 0.374943C102.477 0.196392 102.817 0.089261 103.174 0.0535507C103.531 0.0178404 103.87 0.0178404 104.191 0.0535507C104.549 0.089261 104.781 0.142826 104.888 0.214247C104.816 4.60661 104.799 8.92756 104.834 13.1771C104.87 17.3909 104.906 21.6047 104.941 25.8185C105.013 29.9966 105.084 34.1569 105.156 38.2993C105.227 42.4417 105.263 46.5841 105.263 50.7265C105.263 51.1193 105.227 51.5299 105.156 51.9585C105.12 52.4227 104.816 52.6548 104.245 52.6548C104.031 52.6548 103.817 52.5834 103.602 52.4406C103.388 52.3334 103.245 52.1549 103.174 51.9049L103.013 38.2457ZM100.71 22.7117C99.6027 22.6403 98.5671 23.0867 97.6029 24.0509C96.6745 24.9793 95.8531 26.1935 95.1389 27.6933C94.4604 29.1932 93.9069 30.8537 93.4784 32.6749C93.0499 34.4604 92.782 36.1924 92.6749 37.8708C92.6035 39.5134 92.7106 40.9775 92.9963 42.2631C93.3177 43.5487 93.8712 44.4236 94.6568 44.8878C95.4425 44.8878 96.1745 44.5843 96.853 43.9772C97.5315 43.3344 98.1564 42.5309 98.7278 41.5668C99.2992 40.6026 99.7991 39.5313 100.228 38.3528C100.656 37.1387 101.013 35.9781 101.299 34.8711C101.62 33.7641 101.852 32.7642 101.995 31.8714C102.174 30.943 102.263 30.2466 102.263 29.7824C102.263 29.4253 102.281 28.8539 102.317 28.0683C102.352 27.2827 102.335 26.497 102.263 25.7114C102.192 24.9258 102.031 24.2294 101.781 23.6223C101.567 23.0153 101.21 22.7117 100.71 22.7117ZM53.3814 96.9769C53.3814 96.2627 53.8278 95.3521 54.7206 94.245C55.6133 93.1023 56.7204 91.8167 58.0416 90.3883C59.3629 88.9599 60.8092 87.4065 62.3804 85.7281C63.9517 84.0498 65.398 82.3178 66.7192 80.5323C68.0405 78.7111 69.1475 76.872 70.0403 75.015C70.9331 73.1224 71.3794 71.2655 71.3794 69.4442C71.3794 68.4801 71.1116 67.6587 70.576 66.9802C70.0403 66.266 69.3439 65.6589 68.4869 65.159C67.6656 64.6591 66.7192 64.2662 65.6479 63.9806C64.6123 63.6949 63.5589 63.4806 62.4876 63.3378C61.4163 63.1592 60.3985 63.0521 59.4343 63.0164C58.4702 62.945 57.6488 62.9093 56.9703 62.9093C56.7918 62.9093 56.5597 62.9271 56.274 62.9628C55.9883 62.9628 55.6848 62.9807 55.3634 63.0164C55.0777 63.0164 54.8099 63.0342 54.5599 63.07C54.3099 63.1057 54.1671 63.1235 54.1314 63.1235L53.435 63.7663C53.435 63.8377 53.4172 64.1413 53.3814 64.6769C53.3814 65.2126 53.3636 65.8196 53.3279 66.4981C53.3279 67.1766 53.3279 67.873 53.3279 68.5872V70.2477C53.3279 73.8545 53.4529 77.4433 53.7028 81.0144C53.9885 84.5497 54.1314 88.1207 54.1314 91.7275C54.1314 91.9417 54.1314 92.1738 54.1314 92.4238C54.1671 92.6738 54.1671 92.9238 54.1314 93.1737C54.0957 93.388 53.9885 93.5844 53.81 93.763C53.6671 93.9058 53.435 93.9772 53.1136 93.9772C52.8994 93.9772 52.6851 93.9236 52.4708 93.8165C52.2566 93.7094 52.1316 93.5308 52.0959 93.2809L50.0068 65.1054C49.8997 65.1769 49.7033 65.284 49.4176 65.4268C49.1676 65.534 48.8998 65.6589 48.6141 65.8018C48.3284 65.9446 48.0428 66.1053 47.7571 66.2839C47.5071 66.4267 47.3464 66.4981 47.275 66.4981C47.2393 66.4981 47.1679 66.516 47.0607 66.5517C46.9893 66.5517 46.9357 66.5517 46.9 66.5517C46.7215 66.5517 46.5072 66.516 46.2572 66.4446C46.043 66.3374 45.9358 66.1232 45.9358 65.8018C45.9358 65.2661 46.043 64.8376 46.2572 64.5162C46.5072 64.1591 46.8108 63.8377 47.1679 63.552C47.5607 63.2664 47.9713 62.9807 48.3999 62.695C48.8284 62.4093 49.2212 62.0522 49.5783 61.6237C49.9711 61.1595 50.2746 60.5881 50.4889 59.9096C50.7389 59.2311 50.8639 58.374 50.8639 57.3385C51.5781 57.3385 52.0245 57.4634 52.203 57.7134C52.3816 57.9634 52.4887 58.2669 52.5244 58.624C52.5601 58.9454 52.5958 59.2847 52.6315 59.6418C52.7029 59.9632 52.9708 60.1953 53.435 60.3381C54.4349 60.3024 55.6312 60.3024 57.0239 60.3381C58.4523 60.3738 59.9343 60.4988 61.4698 60.7131C63.0411 60.8916 64.5766 61.1773 66.0765 61.5701C67.612 61.9629 68.969 62.5164 70.1474 63.2306C71.3616 63.9449 72.3079 64.8555 72.9864 65.9625C73.7006 67.0338 74.022 68.3551 73.9506 69.9263C73.4863 72.676 72.5936 75.3186 71.2723 77.854C69.9867 80.3894 68.4512 82.8356 66.6657 85.1925C64.9159 87.5137 63.0054 89.7455 60.9342 91.8882C58.8987 94.0308 56.8632 96.0841 54.8277 98.0482C54.792 98.0482 54.7384 98.0482 54.667 98.0482C54.5956 98.0839 54.542 98.1018 54.5063 98.1018C54.1849 98.1018 53.9171 97.9946 53.7028 97.7804C53.4886 97.5661 53.3814 97.2983 53.3814 96.9769ZM76.4831 86.4781C76.3046 86.5138 76.0368 86.5673 75.6797 86.6387C75.3226 86.7102 74.9476 86.728 74.5548 86.6923C74.162 86.6566 73.8227 86.5495 73.537 86.3709C73.2157 86.1924 73.055 85.8888 73.055 85.4603C73.055 85.2103 73.1085 85.0318 73.2157 84.9247C73.3228 84.8175 73.5013 84.6568 73.7513 84.4426C74.5369 83.7998 75.1976 82.9784 75.7332 81.9786C76.3046 80.943 76.8224 79.8538 77.2866 78.7111C77.7509 77.5326 78.233 76.372 78.7329 75.2293C79.2686 74.0509 79.8756 72.9974 80.5541 72.0689C81.2326 71.1405 82.0718 70.3906 83.0717 69.8192C84.0716 69.2478 85.3036 68.98 86.7677 69.0157C87.3748 69.0157 88.0533 69.1586 88.8032 69.4442C89.5531 69.7299 90.2495 70.1227 90.8923 70.6227C91.535 71.0869 92.0707 71.6583 92.4992 72.3368C92.9277 73.0153 93.142 73.7652 93.142 74.5865C93.3206 74.8722 93.142 75.2829 92.6063 75.8185C92.1064 76.3542 91.4101 76.9434 90.5173 77.5862C89.6245 78.1933 88.6068 78.836 87.4641 79.5145C86.357 80.1573 85.2857 80.7644 84.2501 81.3358C83.2145 81.9071 82.3039 82.4071 81.5183 82.8356C80.7327 83.2641 80.2149 83.5855 79.9649 83.7998C79.7863 84.1569 79.6435 84.5676 79.5364 85.0318C79.4292 85.496 79.34 85.9424 79.2686 86.3709C79.2328 86.7637 79.1971 87.1387 79.1614 87.4958C79.1614 87.8172 79.1614 88.0672 79.1614 88.2457C79.1614 88.9242 79.1257 89.6741 79.0543 90.4955C79.0186 91.3168 79.0543 92.1024 79.1614 92.8523C79.3043 93.5665 79.6078 94.1736 80.072 94.6736C80.5363 95.1378 81.3219 95.3699 82.4289 95.3699C83.6074 95.3699 84.7144 95.0842 85.75 94.5129C86.7856 93.9058 87.7497 93.1737 88.6425 92.3167C89.5353 91.4596 90.3387 90.5312 91.0529 89.5313C91.8029 88.5314 92.4635 87.6029 93.0349 86.7459C93.6419 85.8531 94.1776 85.1211 94.6418 84.5497C95.1061 83.9783 95.4989 83.6926 95.8203 83.6926C96.1774 83.6926 96.5523 83.7641 96.9451 83.9069C97.3737 84.014 97.5879 84.2997 97.5879 84.764C97.5879 85.4067 97.3201 86.1745 96.7845 87.0673C96.2845 87.96 95.606 88.9064 94.749 89.9062C93.9276 90.9061 92.9634 91.906 91.8564 92.9059C90.7851 93.8701 89.696 94.745 88.5889 95.5306C87.4819 96.2805 86.3928 96.9055 85.3214 97.4054C84.2501 97.8696 83.3038 98.1018 82.4825 98.1018C80.8755 98.1018 79.6614 97.7089 78.84 96.9233C78.0187 96.1377 77.4295 95.1557 77.0724 93.9772C76.751 92.7988 76.5724 91.5489 76.5367 90.2276C76.5367 88.8706 76.5189 87.6208 76.4831 86.4781ZM86.3392 72.0154C85.7321 72.0154 85.0893 72.3189 84.4108 72.926C83.7323 73.4974 83.0896 74.2116 82.4825 75.0686C81.9111 75.8899 81.429 76.747 81.0362 77.6398C80.6791 78.4968 80.5006 79.211 80.5006 79.7824C81.0362 79.7824 81.804 79.586 82.8039 79.1932C83.8395 78.7646 84.8572 78.2468 85.8571 77.6398C86.857 77.0327 87.7319 76.3899 88.4818 75.7114C89.2317 75.0329 89.6067 74.3901 89.6067 73.783C89.6067 73.4616 89.4817 73.1938 89.2317 72.9796C88.9818 72.7653 88.6782 72.5867 88.3211 72.4439C87.9997 72.3011 87.6605 72.1939 87.3034 72.1225C86.9463 72.0511 86.6249 72.0154 86.3392 72.0154ZM102.852 97.2447C102.852 97.2804 103.227 97.0662 103.977 96.6019C104.763 96.1377 105.673 95.5306 106.709 94.7807C107.78 93.9951 108.87 93.1559 109.977 92.2631C111.084 91.3347 111.994 90.4597 112.708 89.6384C113.423 88.8171 113.798 88.1207 113.833 87.5494C113.905 86.9423 113.423 86.5495 112.387 86.3709C111.101 86.1924 110.012 86.2102 109.12 86.4245C108.262 86.6387 107.477 86.8887 106.763 87.1744C106.048 87.4601 105.37 87.7279 104.727 87.9779C104.12 88.2279 103.442 88.3171 102.692 88.2457C101.12 88.2457 100.031 87.7636 99.4242 86.7994C98.8528 85.7996 98.5671 84.4604 98.5671 82.782C98.5671 81.1037 98.9421 79.5145 99.692 78.0147C100.442 76.4792 101.406 75.1579 102.585 74.0509C103.763 72.9438 105.12 72.0689 106.655 71.4262C108.191 70.7477 109.762 70.4084 111.369 70.4084C112.012 70.4084 112.566 70.462 113.03 70.5691C113.494 70.6762 113.726 71.0869 113.726 71.8011C113.726 72.3011 113.512 72.7832 113.083 73.2474C112.655 73.6759 112.173 73.8902 111.637 73.8902C111.601 73.8902 111.512 73.8723 111.369 73.8366C111.226 73.7652 111.084 73.6759 110.941 73.5688C110.798 73.4616 110.655 73.3902 110.512 73.3545C110.369 73.2831 110.28 73.2474 110.244 73.2474C109.102 72.926 107.995 73.0867 106.923 73.7295C105.852 74.3723 104.888 75.2472 104.031 76.3542C103.209 77.4255 102.549 78.6039 102.049 79.8895C101.549 81.1394 101.299 82.2642 101.299 83.2641C101.299 83.6569 101.37 83.9783 101.513 84.2283C101.692 84.4426 101.906 84.6033 102.156 84.7104C102.442 84.8175 102.745 84.8889 103.067 84.9247C103.424 84.9247 103.781 84.9247 104.138 84.9247C104.852 84.9247 105.566 84.8175 106.281 84.6033C107.03 84.389 107.745 84.139 108.423 83.8533C109.137 83.5677 109.852 83.3177 110.566 83.1034C111.316 82.8892 112.083 82.782 112.869 82.782C113.226 82.782 113.619 82.8892 114.048 83.1034C114.476 83.282 114.869 83.5677 115.226 83.9605C115.583 84.3176 115.887 84.7461 116.137 85.246C116.387 85.7103 116.529 86.2281 116.565 86.7994C116.779 87.2994 116.708 87.96 116.351 88.7814C116.029 89.6027 115.53 90.4776 114.851 91.4061C114.173 92.3345 113.351 93.2809 112.387 94.245C111.423 95.1735 110.459 96.0306 109.494 96.8162C108.53 97.5661 107.584 98.1732 106.655 98.6374C105.727 99.1374 104.941 99.3695 104.299 99.3338C103.584 99.3338 103.156 99.1195 103.013 98.691C102.906 98.2624 102.852 97.7804 102.852 97.2447ZM117.919 96.9769C117.919 94.6557 117.866 92.2096 117.759 89.6384C117.687 87.0673 117.598 84.4783 117.491 81.8714C117.419 79.2289 117.401 76.6399 117.437 74.1044C117.473 71.569 117.634 69.1943 117.919 66.9802C117.991 66.9445 118.151 66.9267 118.401 66.9267C118.687 66.891 118.883 66.8731 118.991 66.8731C119.49 66.8731 119.883 66.9624 120.169 67.1409C120.49 67.2838 120.651 67.623 120.651 68.1587C120.651 70.2656 120.633 72.5689 120.598 75.0686C120.598 77.5326 120.58 80.0502 120.544 82.6213C120.544 85.1568 120.544 87.6743 120.544 90.1741C120.544 92.6738 120.58 94.9414 120.651 96.9769C120.687 97.584 120.562 97.9768 120.276 98.1553C120.026 98.3696 119.705 98.4767 119.312 98.4767C118.883 98.4767 118.526 98.3696 118.241 98.1553C117.955 97.9768 117.848 97.584 117.919 96.9769ZM116.741 58.624C116.741 58.1955 116.884 57.9098 117.169 57.767C117.455 57.6241 117.776 57.5527 118.133 57.5527C118.848 57.5527 119.294 57.7848 119.473 58.2491C119.651 58.7133 119.74 59.249 119.74 59.856C119.526 60.2488 119.258 60.5345 118.937 60.7131C118.616 60.8559 118.276 60.8916 117.919 60.8202C117.598 60.7131 117.312 60.481 117.062 60.1239C116.848 59.7668 116.741 59.2668 116.741 58.624ZM126.398 118.992C129.54 118.814 132.004 117.992 133.79 116.528C135.611 115.064 136.968 113.171 137.861 110.85C138.753 108.529 139.289 105.869 139.468 102.869C139.646 99.9051 139.664 96.834 139.521 93.6558C139.378 90.4776 139.164 87.2994 138.878 84.1212C138.628 80.9072 138.521 77.9254 138.557 75.1757C137.021 79.6752 135.575 83.3177 134.218 86.1031C132.861 88.8528 131.593 90.9418 130.415 92.3703C129.272 93.763 128.219 94.62 127.255 94.9414C126.326 95.2271 125.505 95.1735 124.791 94.7807C124.076 94.3522 123.487 93.6915 123.023 92.7988C122.594 91.8703 122.291 90.924 122.112 89.9598C122.184 88.3171 122.505 86.5138 123.077 84.5497C123.684 82.5499 124.451 80.6037 125.38 78.7111C126.344 76.7827 127.451 74.9972 128.701 73.3545C129.951 71.6761 131.272 70.3727 132.665 69.4442C134.057 68.4801 135.504 67.9801 137.004 67.9444C138.503 67.873 139.95 68.4444 141.342 69.6585C141.378 69.6942 141.432 70.1763 141.503 71.1048C141.61 71.9975 141.717 73.1938 141.824 74.6937C141.967 76.1578 142.11 77.8183 142.253 79.6752C142.431 81.4965 142.592 83.3534 142.735 85.246C142.878 87.103 143.003 88.8885 143.11 90.6026C143.217 92.3167 143.324 93.7987 143.431 95.0485C143.574 97.084 143.485 99.2445 143.164 101.53C142.878 103.815 142.414 106.029 141.771 108.172C141.128 110.35 140.307 112.386 139.307 114.279C138.343 116.171 137.218 117.725 135.932 118.939C134.682 120.153 133.272 120.921 131.701 121.242C130.165 121.599 128.522 121.331 126.773 120.439C126.665 120.439 126.505 120.421 126.29 120.385C126.076 120.385 125.898 120.331 125.755 120.224C125.648 120.117 125.63 119.974 125.701 119.796C125.773 119.617 126.005 119.349 126.398 118.992ZM124.898 89.5848C125.255 90.6919 125.719 91.2632 126.29 91.2989C126.898 91.2989 127.54 90.924 128.219 90.1741C128.897 89.3884 129.629 88.2993 130.415 86.9066C131.236 85.5139 132.04 83.9962 132.825 82.3535C133.611 80.7108 134.379 79.0325 135.129 77.3184C135.914 75.5686 136.646 73.9437 137.325 72.4439C137.325 72.0511 137.236 71.694 137.057 71.3726C136.879 71.0155 136.486 70.9084 135.879 71.0512C134.879 71.2655 133.897 71.7476 132.933 72.4975C132.004 73.2474 131.129 74.1759 130.308 75.2829C129.522 76.3542 128.79 77.5505 128.112 78.8718C127.469 80.1573 126.898 81.4608 126.398 82.782C125.933 84.0676 125.558 85.2996 125.273 86.4781C125.023 87.6565 124.898 88.6921 124.898 89.5848ZM147.303 97.3518C146.91 92.5309 146.553 87.7101 146.232 82.8892C145.946 78.0326 145.625 72.9974 145.268 67.7837C145.268 66.9267 145.732 66.4981 146.66 66.4981H147.089C147.196 66.4981 147.321 66.641 147.464 66.9267C147.607 67.2123 147.749 67.748 147.892 68.5336C148.071 69.2835 148.249 70.4441 148.428 72.0154C148.642 73.5509 148.892 75.5686 149.178 78.0683C149.464 80.568 149.785 83.6926 150.142 87.4422C150.892 85.0139 151.481 82.6571 151.91 80.3716C152.338 78.0861 152.892 76.0149 153.57 74.158C154.249 72.2654 155.195 70.6048 156.409 69.1764C157.659 67.748 159.445 66.6945 161.766 66.0161C163.051 66.2303 164.087 67.0159 164.873 68.3729C165.658 69.6942 166.283 71.3369 166.747 73.301C167.212 75.265 167.533 77.4076 167.712 79.7288C167.89 82.0143 167.997 84.2104 168.033 86.3174C168.069 88.4243 168.086 90.3169 168.086 91.9953C168.086 93.638 168.122 94.8164 168.194 95.5306C168.086 95.8163 167.926 96.0663 167.712 96.2805C167.497 96.4948 167.247 96.6555 166.962 96.7626C166.712 96.834 166.462 96.8519 166.212 96.8162C165.962 96.7448 165.73 96.5484 165.515 96.227C165.515 95.8341 165.48 95.0307 165.408 93.8165C165.337 92.6024 165.248 91.1918 165.14 89.5848C165.033 87.9422 164.908 86.2102 164.765 84.389C164.658 82.5321 164.551 80.8001 164.444 79.1932C164.373 77.5505 164.301 76.1221 164.23 74.9079C164.158 73.6938 164.105 72.8903 164.069 72.4975C163.319 71.1762 162.569 70.4263 161.819 70.2477C161.105 70.0692 160.373 70.3013 159.623 70.9441C158.909 71.5869 158.213 72.5689 157.534 73.8902C156.856 75.2115 156.213 76.7113 155.606 78.3897C154.999 80.0323 154.427 81.7643 153.892 83.5855C153.356 85.4067 152.892 87.1744 152.499 88.8885C152.106 90.5669 151.767 92.1024 151.481 93.4951C151.231 94.8521 151.071 95.9056 150.999 96.6555C150.892 96.9055 150.66 97.1554 150.303 97.4054C149.981 97.6197 149.624 97.7804 149.231 97.8875C148.874 97.9946 148.499 98.0303 148.107 97.9946C147.749 97.9232 147.482 97.7089 147.303 97.3518ZM171.476 86.4781C171.298 86.5138 171.03 86.5673 170.673 86.6387C170.316 86.7102 169.941 86.728 169.548 86.6923C169.155 86.6566 168.816 86.5495 168.53 86.3709C168.209 86.1924 168.048 85.8888 168.048 85.4603C168.048 85.2103 168.101 85.0318 168.209 84.9247C168.316 84.8175 168.494 84.6568 168.744 84.4426C169.53 83.7998 170.191 82.9784 170.726 81.9786C171.298 80.943 171.815 79.8538 172.28 78.7111C172.744 77.5326 173.226 76.372 173.726 75.2293C174.262 74.0509 174.869 72.9974 175.547 72.0689C176.226 71.1405 177.065 70.3906 178.065 69.8192C179.065 69.2478 180.297 68.98 181.761 69.0157C182.368 69.0157 183.046 69.1586 183.796 69.4442C184.546 69.7299 185.242 70.1227 185.885 70.6227C186.528 71.0869 187.064 71.6583 187.492 72.3368C187.921 73.0153 188.135 73.7652 188.135 74.5865C188.314 74.8722 188.135 75.2829 187.599 75.8185C187.099 76.3542 186.403 76.9434 185.51 77.5862C184.618 78.1933 183.6 78.836 182.457 79.5145C181.35 80.1573 180.279 80.7644 179.243 81.3358C178.208 81.9071 177.297 82.4071 176.511 82.8356C175.726 83.2641 175.208 83.5855 174.958 83.7998C174.779 84.1569 174.636 84.5676 174.529 85.0318C174.422 85.496 174.333 85.9424 174.262 86.3709C174.226 86.7637 174.19 87.1387 174.154 87.4958C174.154 87.8172 174.154 88.0672 174.154 88.2457C174.154 88.9242 174.119 89.6741 174.047 90.4955C174.012 91.3168 174.047 92.1024 174.154 92.8523C174.297 93.5665 174.601 94.1736 175.065 94.6736C175.529 95.1378 176.315 95.3699 177.422 95.3699C178.6 95.3699 179.707 95.0842 180.743 94.5129C181.779 93.9058 182.743 93.1737 183.635 92.3167C184.528 91.4596 185.332 90.5312 186.046 89.5313C186.796 88.5314 187.456 87.6029 188.028 86.7459C188.635 85.8531 189.171 85.1211 189.635 84.5497C190.099 83.9783 190.492 83.6926 190.813 83.6926C191.17 83.6926 191.545 83.7641 191.938 83.9069C192.367 84.014 192.581 84.2997 192.581 84.764C192.581 85.4067 192.313 86.1745 191.777 87.0673C191.277 87.96 190.599 88.9064 189.742 89.9062C188.921 90.9061 187.956 91.906 186.849 92.9059C185.778 93.8701 184.689 94.745 183.582 95.5306C182.475 96.2805 181.386 96.9055 180.314 97.4054C179.243 97.8696 178.297 98.1018 177.475 98.1018C175.868 98.1018 174.654 97.7089 173.833 96.9233C173.012 96.1377 172.422 95.1557 172.065 93.9772C171.744 92.7988 171.565 91.5489 171.53 90.2276C171.53 88.8706 171.512 87.6208 171.476 86.4781ZM181.332 72.0154C180.725 72.0154 180.082 72.3189 179.404 72.926C178.725 73.4974 178.083 74.2116 177.475 75.0686C176.904 75.8899 176.422 76.747 176.029 77.6398C175.672 78.4968 175.494 79.211 175.494 79.7824C176.029 79.7824 176.797 79.586 177.797 79.1932C178.832 78.7646 179.85 78.2468 180.85 77.6398C181.85 77.0327 182.725 76.3899 183.475 75.7114C184.225 75.0329 184.6 74.3901 184.6 73.783C184.6 73.4616 184.475 73.1938 184.225 72.9796C183.975 72.7653 183.671 72.5867 183.314 72.4439C182.993 72.3011 182.653 72.1939 182.296 72.1225C181.939 72.0511 181.618 72.0154 181.332 72.0154ZM193.614 72.2296V71.8011C193.614 71.444 193.739 71.194 193.989 71.0512C194.274 70.9084 194.596 70.8369 194.953 70.8369C195.238 70.8369 195.506 70.8727 195.756 70.9441C196.006 70.9798 196.203 71.1762 196.345 71.5333C196.453 72.0689 196.56 72.8189 196.667 73.783C196.774 74.7115 196.899 75.7471 197.042 76.8898C197.185 78.0326 197.328 79.2467 197.47 80.5323C197.649 81.7821 197.81 82.9784 197.952 84.1212C198.131 85.2282 198.31 86.2281 198.488 87.1208C198.667 88.0136 198.863 88.6921 199.077 89.1563C198.97 85.7281 199.077 82.7642 199.399 80.2645C199.72 77.729 200.327 75.6757 201.22 74.1044C202.148 72.4975 203.398 71.3905 204.97 70.7834C206.576 70.1406 208.576 69.9978 210.969 70.3549C212.076 70.3549 212.629 70.9441 212.629 72.1225C212.629 72.5867 212.326 72.9081 211.719 73.0867C211.112 73.2295 210.433 73.3367 209.683 73.4081C208.933 73.4438 208.201 73.4974 207.487 73.5688C206.773 73.6402 206.255 73.8188 205.934 74.1044C204.648 74.8186 203.738 75.9257 203.202 77.4255C202.702 78.9253 202.345 80.693 202.131 82.7285C201.916 84.764 201.756 86.9959 201.648 89.4242C201.577 91.8167 201.345 94.2808 200.952 96.8162C200.952 97.1733 200.809 97.4411 200.524 97.6197C200.238 97.7982 199.881 97.8875 199.452 97.8875C199.059 97.8875 198.667 97.7982 198.274 97.6197C197.917 97.4411 197.631 97.1733 197.417 96.8162L193.614 72.2296Z" fill="white"/>
</svg>
