<svg xmlns="http://www.w3.org/2000/svg" width="272" height="57" viewBox="0 0 272 57" fill="none"><rect x="1" y="1" width="270" height="55" rx="27.5" stroke="url(#paint0_linear_140_92)" stroke-width="2"></rect><path d="M34.931 28.3385H37.7579C38.6173 28.3385 39.2882 28.1199 39.7706 27.6826C40.2681 27.2303 40.5169 26.6273 40.5169 25.8734C40.5169 25.1045 40.2681 24.4939 39.7706 24.0416C39.2882 23.5893 38.6173 23.3632 37.7579 23.3632H34.931V28.3385ZM38.165 30.7357H34.931V37H32.2172V20.966H38.165C39.6877 20.966 40.9164 21.4258 41.8512 22.3455C42.801 23.2652 43.2759 24.4336 43.2759 25.8508C43.2759 27.2831 42.801 28.4591 41.8512 29.3788C40.9164 30.2834 39.6877 30.7357 38.165 30.7357ZM51.0751 25.9187V28.5872C50.7736 28.542 50.4871 28.5194 50.2157 28.5194C48.2407 28.5194 47.2532 29.5974 47.2532 31.7533V37H44.6298V25.9865H47.1853V27.7505C47.4416 27.1625 47.8562 26.7027 48.4291 26.371C49.0021 26.0242 49.6504 25.8508 50.374 25.8508C50.6153 25.8508 50.8489 25.8734 51.0751 25.9187ZM55.1221 34.0601C55.7252 34.6782 56.4564 34.9873 57.3158 34.9873C58.1751 34.9873 58.8988 34.6782 59.4868 34.0601C60.0899 33.4419 60.3914 32.5825 60.3914 31.4819C60.3914 30.3964 60.0899 29.5521 59.4868 28.9491C58.8988 28.3309 58.1751 28.0219 57.3158 28.0219C56.4564 28.0219 55.7252 28.3309 55.1221 28.9491C54.5341 29.5521 54.2401 30.3964 54.2401 31.4819C54.2401 32.5675 54.5341 33.4268 55.1221 34.0601ZM57.3158 25.6473C58.9742 25.6473 60.3386 26.1976 61.4091 27.2982C62.4946 28.3988 63.0373 29.7934 63.0373 31.4819C63.0373 33.1705 62.4946 34.5727 61.4091 35.6883C60.3386 36.7889 58.9742 37.3392 57.3158 37.3392C55.6724 37.3392 54.308 36.7889 53.2225 35.6883C52.152 34.5727 51.6168 33.1705 51.6168 31.4819C51.6168 29.7934 52.152 28.3988 53.2225 27.2982C54.308 26.1976 55.6724 25.6473 57.3158 25.6473ZM64.8941 37.9046V25.9865H67.5174V38.1081C67.5174 39.1484 67.2234 39.9927 66.6354 40.641C66.0474 41.3044 65.2484 41.6361 64.2382 41.6361C63.5749 41.6361 63.0773 41.5682 62.7456 41.4325V39.2615C62.9718 39.3067 63.2356 39.3293 63.5372 39.3293C64.4418 39.3293 64.8941 38.8544 64.8941 37.9046ZM64.9845 23.2953C64.6528 22.9636 64.487 22.5641 64.487 22.0967C64.487 21.6294 64.6528 21.2298 64.9845 20.8981C65.3162 20.5514 65.7157 20.378 66.1831 20.378C66.6656 20.378 67.0726 20.5514 67.4043 20.8981C67.736 21.2298 67.9019 21.6294 67.9019 22.0967C67.9019 22.5641 67.7285 22.9636 67.3817 23.2953C67.05 23.627 66.6505 23.7929 66.1831 23.7929C65.7157 23.7929 65.3162 23.627 64.9845 23.2953ZM72.0545 30.2834H77.4595C77.4294 29.5898 77.1806 29.0094 76.7132 28.542C76.2609 28.0746 75.6051 27.8409 74.7457 27.8409C73.9617 27.8409 73.3285 28.0897 72.8461 28.5872C72.3636 29.0697 72.0998 29.6351 72.0545 30.2834ZM77.7535 33.1555L79.9698 33.8565C79.6532 34.8667 79.0576 35.7034 78.1832 36.3668C77.3238 37.0151 76.2609 37.3392 74.9945 37.3392C73.4265 37.3392 72.0922 36.804 70.9916 35.7336C69.9061 34.6631 69.3634 33.2308 69.3634 31.4367C69.3634 29.7481 69.891 28.3611 70.9464 27.2756C72.0168 26.19 73.2757 25.6473 74.7231 25.6473C76.4117 25.6473 77.7309 26.1674 78.6807 27.2077C79.6305 28.2329 80.1055 29.62 80.1055 31.3689C80.1055 31.8363 80.0828 32.1152 80.0376 32.2056H71.9867C72.0168 33.0348 72.3184 33.7208 72.8913 34.2636C73.4793 34.8063 74.1803 35.0777 74.9945 35.0777C76.4117 35.0777 77.3314 34.437 77.7535 33.1555ZM85.2583 22.6169V25.9865H87.5424V28.3159H85.2583V33.4268C85.2583 33.9093 85.3714 34.2636 85.5975 34.4897C85.8237 34.7008 86.178 34.8063 86.6604 34.8063C86.962 34.8063 87.2635 34.7762 87.565 34.7159V36.8869C87.173 37.0528 86.6378 37.1357 85.9594 37.1357C84.9342 37.1357 84.1276 36.8492 83.5396 36.2763C82.9516 35.6883 82.6576 34.8817 82.6576 33.8565V28.3159H80.6222V25.9865H81.1876C81.7455 25.9865 82.1676 25.8282 82.4541 25.5116C82.7405 25.195 82.8837 24.7804 82.8837 24.2678V22.6169H85.2583ZM92.0949 34.0601C92.698 34.6782 93.4292 34.9873 94.2886 34.9873C95.1479 34.9873 95.8716 34.6782 96.4596 34.0601C97.0627 33.4419 97.3642 32.5825 97.3642 31.4819C97.3642 30.3964 97.0627 29.5521 96.4596 28.9491C95.8716 28.3309 95.1479 28.0219 94.2886 28.0219C93.4292 28.0219 92.698 28.3309 92.0949 28.9491C91.5069 29.5521 91.2129 30.3964 91.2129 31.4819C91.2129 32.5675 91.5069 33.4268 92.0949 34.0601ZM94.2886 25.6473C95.947 25.6473 97.3114 26.1976 98.3819 27.2982C99.4674 28.3988 100.01 29.7934 100.01 31.4819C100.01 33.1705 99.4674 34.5727 98.3819 35.6883C97.3114 36.7889 95.947 37.3392 94.2886 37.3392C92.6452 37.3392 91.2808 36.7889 90.1953 35.6883C89.1248 34.5727 88.5896 33.1705 88.5896 31.4819C88.5896 29.7934 89.1248 28.3988 90.1953 27.2982C91.2808 26.1976 92.6452 25.6473 94.2886 25.6473ZM100.894 34.0148L103.179 33.3816C103.224 33.9093 103.442 34.354 103.834 34.7159C104.226 35.0777 104.754 35.2586 105.417 35.2586C105.93 35.2586 106.33 35.138 106.616 34.8968C106.918 34.6556 107.068 34.354 107.068 33.9922C107.068 33.359 106.639 32.9519 105.779 32.771L104.151 32.4092C103.201 32.1981 102.47 31.8061 101.957 31.2332C101.445 30.6603 101.188 29.9818 101.188 29.1978C101.188 28.2329 101.58 27.4037 102.364 26.7102C103.148 26.0016 104.106 25.6473 105.237 25.6473C105.96 25.6473 106.601 25.7528 107.159 25.9639C107.717 26.175 108.146 26.4539 108.448 26.8007C108.764 27.1323 109.006 27.4565 109.172 27.7731C109.337 28.0897 109.443 28.4063 109.488 28.7229L107.272 29.3561C107.212 28.934 107.016 28.5571 106.684 28.2254C106.367 27.8786 105.885 27.7053 105.237 27.7053C104.784 27.7053 104.407 27.8334 104.106 28.0897C103.804 28.3309 103.653 28.6249 103.653 28.9717C103.653 29.5898 104.023 29.9743 104.762 30.1251L106.435 30.4643C107.46 30.6904 108.244 31.0975 108.787 31.6855C109.33 32.2735 109.601 32.9821 109.601 33.8113C109.601 34.731 109.232 35.5526 108.493 36.2763C107.769 36.9849 106.752 37.3392 105.44 37.3392C104.686 37.3392 104.008 37.2261 103.405 37C102.817 36.7739 102.349 36.4874 102.003 36.1406C101.671 35.7788 101.407 35.4245 101.211 35.0777C101.03 34.7159 100.925 34.3616 100.894 34.0148ZM115.483 34.0148L117.767 33.3816C117.812 33.9093 118.031 34.354 118.423 34.7159C118.815 35.0777 119.342 35.2586 120.006 35.2586C120.518 35.2586 120.918 35.138 121.204 34.8968C121.506 34.6556 121.657 34.354 121.657 33.9922C121.657 33.359 121.227 32.9519 120.368 32.771L118.739 32.4092C117.79 32.1981 117.058 31.8061 116.546 31.2332C116.033 30.6603 115.777 29.9818 115.777 29.1978C115.777 28.2329 116.169 27.4037 116.953 26.7102C117.737 26.0016 118.694 25.6473 119.825 25.6473C120.549 25.6473 121.189 25.7528 121.747 25.9639C122.305 26.175 122.735 26.4539 123.036 26.8007C123.353 27.1323 123.594 27.4565 123.76 27.7731C123.926 28.0897 124.031 28.4063 124.077 28.7229L121.86 29.3561C121.8 28.934 121.604 28.5571 121.272 28.2254C120.956 27.8786 120.473 27.7053 119.825 27.7053C119.373 27.7053 118.996 27.8334 118.694 28.0897C118.393 28.3309 118.242 28.6249 118.242 28.9717C118.242 29.5898 118.611 29.9743 119.35 30.1251L121.024 30.4643C122.049 30.6904 122.833 31.0975 123.375 31.6855C123.918 32.2735 124.19 32.9821 124.19 33.8113C124.19 34.731 123.82 35.5526 123.081 36.2763C122.358 36.9849 121.34 37.3392 120.028 37.3392C119.275 37.3392 118.596 37.2261 117.993 37C117.405 36.7739 116.938 36.4874 116.591 36.1406C116.259 35.7788 115.995 35.4245 115.799 35.0777C115.619 34.7159 115.513 34.3616 115.483 34.0148ZM127.878 30.2834H133.283C133.253 29.5898 133.004 29.0094 132.537 28.542C132.085 28.0746 131.429 27.8409 130.569 27.8409C129.785 27.8409 129.152 28.0897 128.67 28.5872C128.187 29.0697 127.923 29.6351 127.878 30.2834ZM133.577 33.1555L135.793 33.8565C135.477 34.8667 134.881 35.7034 134.007 36.3668C133.147 37.0151 132.085 37.3392 130.818 37.3392C129.25 37.3392 127.916 36.804 126.815 35.7336C125.73 34.6631 125.187 33.2308 125.187 31.4367C125.187 29.7481 125.715 28.3611 126.77 27.2756C127.84 26.19 129.099 25.6473 130.547 25.6473C132.235 25.6473 133.554 26.1674 134.504 27.2077C135.454 28.2329 135.929 29.62 135.929 31.3689C135.929 31.8363 135.906 32.1152 135.861 32.2056H127.81C127.84 33.0348 128.142 33.7208 128.715 34.2636C129.303 34.8063 130.004 35.0777 130.818 35.0777C132.235 35.0777 133.155 34.437 133.577 33.1555ZM140.381 37H137.758V20.6268H140.381V37ZM144.918 30.2834H150.323C150.293 29.5898 150.044 29.0094 149.577 28.542C149.124 28.0746 148.469 27.8409 147.609 27.8409C146.825 27.8409 146.192 28.0897 145.71 28.5872C145.227 29.0697 144.963 29.6351 144.918 30.2834ZM150.617 33.1555L152.833 33.8565C152.517 34.8667 151.921 35.7034 151.047 36.3668C150.187 37.0151 149.124 37.3392 147.858 37.3392C146.29 37.3392 144.956 36.804 143.855 35.7336C142.77 34.6631 142.227 33.2308 142.227 31.4367C142.227 29.7481 142.754 28.3611 143.81 27.2756C144.88 26.19 146.139 25.6473 147.587 25.6473C149.275 25.6473 150.594 26.1674 151.544 27.2077C152.494 28.2329 152.969 29.62 152.969 31.3689C152.969 31.8363 152.946 32.1152 152.901 32.2056H144.85C144.88 33.0348 145.182 33.7208 145.755 34.2636C146.343 34.8063 147.044 35.0777 147.858 35.0777C149.275 35.0777 150.195 34.437 150.617 33.1555ZM159.592 28.0671C158.747 28.0671 158.031 28.3762 157.443 28.9943C156.855 29.5974 156.561 30.4266 156.561 31.4819C156.561 32.5524 156.855 33.3967 157.443 34.0148C158.046 34.633 158.778 34.942 159.637 34.942C160.406 34.942 161.016 34.7385 161.469 34.3314C161.936 33.9093 162.245 33.4344 162.396 32.9067L164.703 33.7434C164.401 34.7234 163.813 35.5677 162.939 36.2763C162.079 36.9849 160.979 37.3392 159.637 37.3392C158.024 37.3392 156.667 36.7814 155.566 35.6657C154.481 34.55 153.938 33.1555 153.938 31.4819C153.938 29.7934 154.473 28.3988 155.544 27.2982C156.629 26.1976 157.971 25.6473 159.569 25.6473C160.941 25.6473 162.057 26.0016 162.916 26.7102C163.791 27.4188 164.356 28.2706 164.612 29.2657L162.26 30.1251C162.11 29.5521 161.816 29.0697 161.378 28.6777C160.956 28.2706 160.361 28.0671 159.592 28.0671ZM168.955 37H166.354V25.9865H168.955V37ZM166.444 23.318C166.113 22.9863 165.947 22.5867 165.947 22.1194C165.947 21.652 166.113 21.2525 166.444 20.9208C166.776 20.574 167.176 20.4006 167.643 20.4006C168.125 20.4006 168.533 20.5665 168.864 20.8981C169.196 21.2298 169.362 21.6369 169.362 22.1194C169.362 22.5867 169.196 22.9863 168.864 23.318C168.533 23.6496 168.125 23.8155 167.643 23.8155C167.176 23.8155 166.776 23.6496 166.444 23.318ZM174.306 34.0601C174.91 34.6782 175.641 34.9873 176.5 34.9873C177.359 34.9873 178.083 34.6782 178.671 34.0601C179.274 33.4419 179.576 32.5825 179.576 31.4819C179.576 30.3964 179.274 29.5521 178.671 28.9491C178.083 28.3309 177.359 28.0219 176.5 28.0219C175.641 28.0219 174.91 28.3309 174.306 28.9491C173.718 29.5521 173.424 30.3964 173.424 31.4819C173.424 32.5675 173.718 33.4268 174.306 34.0601ZM176.5 25.6473C178.159 25.6473 179.523 26.1976 180.593 27.2982C181.679 28.3988 182.222 29.7934 182.222 31.4819C182.222 33.1705 181.679 34.5727 180.593 35.6883C179.523 36.7889 178.159 37.3392 176.5 37.3392C174.857 37.3392 173.492 36.7889 172.407 35.6883C171.336 34.5727 170.801 33.1705 170.801 31.4819C170.801 29.7934 171.336 28.3988 172.407 27.2982C173.492 26.1976 174.857 25.6473 176.5 25.6473ZM186.702 30.6452V37H184.078V25.9865H186.634V27.4565C186.981 26.8534 187.441 26.4087 188.013 26.1222C188.601 25.8207 189.227 25.6699 189.89 25.6699C191.187 25.6699 192.175 26.077 192.853 26.8911C193.531 27.7053 193.871 28.7531 193.871 30.0346V37H191.247V30.4869C191.247 29.7481 191.066 29.1601 190.705 28.7229C190.343 28.2706 189.77 28.0445 188.986 28.0445C188.262 28.0445 187.697 28.2932 187.29 28.7908C186.898 29.2732 186.702 29.8914 186.702 30.6452ZM195.707 34.0148C195.707 33.0801 196.009 32.3338 196.612 31.7759C197.23 31.203 198.037 30.8412 199.032 30.6904L201.859 30.2607C202.401 30.1854 202.673 29.9215 202.673 29.4692C202.673 28.9717 202.499 28.5722 202.153 28.2706C201.806 27.954 201.286 27.7957 200.592 27.7957C199.929 27.7957 199.401 27.9842 199.009 28.3611C198.617 28.7229 198.391 29.1978 198.331 29.7858L195.934 29.2431C196.039 28.248 196.514 27.4037 197.358 26.7102C198.203 26.0016 199.273 25.6473 200.57 25.6473C202.168 25.6473 203.344 26.0317 204.098 26.8007C204.867 27.5696 205.251 28.5571 205.251 29.7632V35.236C205.251 35.9597 205.296 36.5477 205.387 37H202.944C202.869 36.7739 202.831 36.3065 202.831 35.5979C202.107 36.7588 200.977 37.3392 199.439 37.3392C198.323 37.3392 197.419 37.0151 196.725 36.3668C196.047 35.7034 195.707 34.9194 195.707 34.0148ZM199.936 35.2813C200.751 35.2813 201.406 35.0627 201.904 34.6254C202.417 34.1731 202.673 33.4419 202.673 32.4318V31.9342L199.801 32.3639C198.821 32.5298 198.331 33.0273 198.331 33.8565C198.331 34.2485 198.474 34.5877 198.76 34.8742C199.047 35.1456 199.439 35.2813 199.936 35.2813ZM209.486 31.4593C209.486 32.5147 209.757 33.3665 210.3 34.0148C210.843 34.648 211.559 34.9647 212.448 34.9647C213.308 34.9647 214.009 34.6405 214.551 33.9922C215.094 33.3439 215.366 32.4921 215.366 31.4367C215.366 30.3964 215.102 29.5672 214.574 28.9491C214.046 28.3309 213.345 28.0219 212.471 28.0219C211.596 28.0219 210.88 28.3385 210.322 28.9717C209.765 29.5898 209.486 30.419 209.486 31.4593ZM217.898 20.6268V34.9873C217.898 35.726 217.936 36.3969 218.011 37H215.501C215.426 36.5779 215.388 36.1029 215.388 35.5753C215.117 36.0728 214.695 36.4799 214.122 36.7965C213.549 37.1131 212.893 37.2714 212.154 37.2714C210.586 37.2714 209.312 36.7211 208.332 35.6205C207.352 34.5199 206.862 33.1328 206.862 31.4593C206.862 29.8461 207.352 28.4817 208.332 27.366C209.327 26.2504 210.586 25.6925 212.109 25.6925C212.983 25.6925 213.684 25.8508 214.212 26.1674C214.755 26.484 215.132 26.8534 215.343 27.2756V20.6268H217.898ZM223.293 34.0601C223.897 34.6782 224.628 34.9873 225.487 34.9873C226.346 34.9873 227.07 34.6782 227.658 34.0601C228.261 33.4419 228.563 32.5825 228.563 31.4819C228.563 30.3964 228.261 29.5521 227.658 28.9491C227.07 28.3309 226.346 28.0219 225.487 28.0219C224.628 28.0219 223.897 28.3309 223.293 28.9491C222.705 29.5521 222.411 30.3964 222.411 31.4819C222.411 32.5675 222.705 33.4268 223.293 34.0601ZM225.487 25.6473C227.146 25.6473 228.51 26.1976 229.58 27.2982C230.666 28.3988 231.209 29.7934 231.209 31.4819C231.209 33.1705 230.666 34.5727 229.58 35.6883C228.51 36.7889 227.146 37.3392 225.487 37.3392C223.844 37.3392 222.479 36.7889 221.394 35.6883C220.323 34.5727 219.788 33.1705 219.788 31.4819C219.788 29.7934 220.323 28.3988 221.394 27.2982C222.479 26.1976 223.844 25.6473 225.487 25.6473ZM232.093 34.0148L234.377 33.3816C234.422 33.9093 234.641 34.354 235.033 34.7159C235.425 35.0777 235.953 35.2586 236.616 35.2586C237.129 35.2586 237.528 35.138 237.815 34.8968C238.116 34.6556 238.267 34.354 238.267 33.9922C238.267 33.359 237.837 32.9519 236.978 32.771L235.35 32.4092C234.4 32.1981 233.668 31.8061 233.156 31.2332C232.643 30.6603 232.387 29.9818 232.387 29.1978C232.387 28.2329 232.779 27.4037 233.563 26.7102C234.347 26.0016 235.304 25.6473 236.435 25.6473C237.159 25.6473 237.799 25.7528 238.357 25.9639C238.915 26.175 239.345 26.4539 239.646 26.8007C239.963 27.1323 240.204 27.4565 240.37 27.7731C240.536 28.0897 240.641 28.4063 240.687 28.7229L238.47 29.3561C238.41 28.934 238.214 28.5571 237.882 28.2254C237.566 27.8786 237.083 27.7053 236.435 27.7053C235.983 27.7053 235.606 27.8334 235.304 28.0897C235.003 28.3309 234.852 28.6249 234.852 28.9717C234.852 29.5898 235.221 29.9743 235.96 30.1251L237.634 30.4643C238.659 30.6904 239.443 31.0975 239.986 31.6855C240.528 32.2735 240.8 32.9821 240.8 33.8113C240.8 34.731 240.43 35.5526 239.692 36.2763C238.968 36.9849 237.95 37.3392 236.639 37.3392C235.885 37.3392 235.206 37.2261 234.603 37C234.015 36.7739 233.548 36.4874 233.201 36.1406C232.869 35.7788 232.606 35.4245 232.41 35.0777C232.229 34.7159 232.123 34.3616 232.093 34.0148Z" fill="url(#paint1_linear_140_92)"></path><defs><linearGradient id="paint0_linear_140_92" x1="-1.5348e-06" y1="28.5" x2="81.7191" y2="168.625" gradientUnits="userSpaceOnUse"><stop stop-color="#A9E207"></stop><stop offset="1" stop-color="#27CE50"></stop></linearGradient><linearGradient id="paint1_linear_140_92" x1="30" y1="28.5" x2="47.7246" y2="92.7969" gradientUnits="userSpaceOnUse"><stop stop-color="#A9E207"></stop><stop offset="1" stop-color="#27CE50"></stop></linearGradient></defs></svg>