<svg xmlns="http://www.w3.org/2000/svg" width="216" height="57" viewBox="0 0 216 57" fill="none"><rect x="1" y="1" width="214" height="55" rx="27.5" stroke="url(#paint0_linear_225_220)" stroke-width="2"></rect><path d="M40.427 37L37.0574 30.6678H35.0673V37H32.3309V20.966H38.4821C39.9898 20.966 41.2035 21.4334 42.1232 22.3681C43.0428 23.2878 43.5027 24.4412 43.5027 25.8282C43.5027 26.974 43.1785 27.954 42.5302 28.7682C41.8819 29.5823 40.9999 30.1251 39.8843 30.3964L43.5027 37H40.427ZM35.0673 28.2706H37.9846C38.8138 28.2706 39.4772 28.052 39.9747 27.6148C40.4873 27.1625 40.7436 26.567 40.7436 25.8282C40.7436 25.0744 40.4873 24.4789 39.9747 24.0416C39.4772 23.5893 38.8138 23.3632 37.9846 23.3632H35.0673V28.2706ZM46.9507 30.2834H52.3557C52.3256 29.5898 52.0768 29.0094 51.6094 28.542C51.1571 28.0746 50.5013 27.8409 49.6419 27.8409C48.8579 27.8409 48.2247 28.0897 47.7423 28.5872C47.2598 29.0697 46.996 29.6351 46.9507 30.2834ZM52.6497 33.1555L54.866 33.8565C54.5494 34.8667 53.9538 35.7034 53.0794 36.3668C52.22 37.0151 51.1571 37.3392 49.8907 37.3392C48.3227 37.3392 46.9884 36.804 45.8878 35.7336C44.8023 34.6631 44.2596 33.2308 44.2596 31.4367C44.2596 29.7481 44.7872 28.3611 45.8426 27.2756C46.9131 26.19 48.1719 25.6473 49.6193 25.6473C51.3079 25.6473 52.6271 26.1674 53.5769 27.2077C54.5268 28.2329 55.0017 29.62 55.0017 31.3689C55.0017 31.8363 54.9791 32.1152 54.9338 32.2056H46.8829C46.9131 33.0348 47.2146 33.7208 47.7875 34.2636C48.3755 34.8063 49.0765 35.0777 49.8907 35.0777C51.3079 35.0777 52.2276 34.437 52.6497 33.1555ZM59.3856 37H56.8301V20.6268H59.4082V27.3434C59.6796 26.876 60.1244 26.484 60.7425 26.1674C61.3607 25.8508 62.0693 25.6925 62.8683 25.6925C64.4664 25.6925 65.7103 26.2353 66.5998 27.3208C67.5044 28.3912 67.9567 29.7632 67.9567 31.4367C67.9567 33.1404 67.4818 34.5425 66.5319 35.6431C65.5972 36.7286 64.3458 37.2714 62.7779 37.2714C61.2099 37.2714 60.0791 36.6909 59.3856 35.53V37ZM64.474 34.0148C65.0318 33.3816 65.3107 32.5298 65.3107 31.4593C65.3107 30.3889 65.0394 29.5521 64.4966 28.9491C63.9538 28.3309 63.2377 28.0219 62.3482 28.0219C61.4888 28.0219 60.7802 28.3309 60.2224 28.9491C59.6645 29.5521 59.3856 30.3889 59.3856 31.4593C59.3856 32.5147 59.6645 33.359 60.2224 33.9922C60.7802 34.6254 61.4888 34.942 62.3482 34.942C63.2226 34.942 63.9312 34.633 64.474 34.0148ZM76.2454 25.9187V28.5872C75.9439 28.542 75.6574 28.5194 75.386 28.5194C73.411 28.5194 72.4235 29.5974 72.4235 31.7533V37H69.8002V25.9865H72.3556V27.7505C72.6119 27.1625 73.0266 26.7027 73.5995 26.371C74.1724 26.0242 74.8207 25.8508 75.5444 25.8508C75.7856 25.8508 76.0193 25.8734 76.2454 25.9187ZM77.1005 34.0148C77.1005 33.0801 77.4021 32.3338 78.0051 31.7759C78.6233 31.203 79.4299 30.8412 80.4249 30.6904L83.2518 30.2607C83.7946 30.1854 84.066 29.9215 84.066 29.4692C84.066 28.9717 83.8926 28.5722 83.5458 28.2706C83.199 27.954 82.6789 27.7957 81.9854 27.7957C81.322 27.7957 80.7943 27.9842 80.4023 28.3611C80.0103 28.7229 79.7842 29.1978 79.7239 29.7858L77.3267 29.2431C77.4322 28.248 77.9071 27.4037 78.7514 26.7102C79.5957 26.0016 80.6662 25.6473 81.9628 25.6473C83.5609 25.6473 84.7369 26.0317 85.4907 26.8007C86.2596 27.5696 86.6441 28.5571 86.6441 29.7632V35.236C86.6441 35.9597 86.6893 36.5477 86.7797 37H84.3373C84.2619 36.7739 84.2243 36.3065 84.2243 35.5979C83.5006 36.7588 82.3698 37.3392 80.832 37.3392C79.7163 37.3392 78.8117 37.0151 78.1182 36.3668C77.4398 35.7034 77.1005 34.9194 77.1005 34.0148ZM81.3295 35.2813C82.1437 35.2813 82.7995 35.0627 83.297 34.6254C83.8096 34.1731 84.066 33.4419 84.066 32.4318V31.9342L81.1939 32.3639C80.2139 32.5298 79.7239 33.0273 79.7239 33.8565C79.7239 34.2485 79.8671 34.5877 80.1536 34.8742C80.44 35.1456 80.832 35.2813 81.3295 35.2813ZM91.7602 30.6452V37H89.1368V25.9865H91.6923V27.4565C92.0391 26.8534 92.4989 26.4087 93.0718 26.1222C93.6598 25.8207 94.2855 25.6699 94.9489 25.6699C96.2455 25.6699 97.233 26.077 97.9114 26.8911C98.5899 27.7053 98.9291 28.7531 98.9291 30.0346V37H96.3058V30.4869C96.3058 29.7481 96.1248 29.1601 95.763 28.7229C95.4012 28.2706 94.8283 28.0445 94.0443 28.0445C93.3206 28.0445 92.7552 28.2932 92.3482 28.7908C91.9562 29.2732 91.7602 29.8914 91.7602 30.6452ZM103.208 31.4593C103.208 32.5147 103.48 33.3665 104.022 34.0148C104.565 34.648 105.281 34.9647 106.171 34.9647C107.03 34.9647 107.731 34.6405 108.274 33.9922C108.817 33.3439 109.088 32.4921 109.088 31.4367C109.088 30.3964 108.824 29.5672 108.297 28.9491C107.769 28.3309 107.068 28.0219 106.193 28.0219C105.319 28.0219 104.603 28.3385 104.045 28.9717C103.487 29.5898 103.208 30.419 103.208 31.4593ZM111.621 20.6268V34.9873C111.621 35.726 111.659 36.3969 111.734 37H109.224C109.148 36.5779 109.111 36.1029 109.111 35.5753C108.839 36.0728 108.417 36.4799 107.844 36.7965C107.271 37.1131 106.616 37.2714 105.877 37.2714C104.309 37.2714 103.035 36.7211 102.055 35.6205C101.075 34.5199 100.585 33.1328 100.585 31.4593C100.585 29.8461 101.075 28.4817 102.055 27.366C103.05 26.2504 104.309 25.6925 105.832 25.6925C106.706 25.6925 107.407 25.8508 107.935 26.1674C108.478 26.484 108.854 26.8534 109.066 27.2756V20.6268H111.621ZM122.241 34.5124H125.091C126.568 34.5124 127.782 34.045 128.732 33.1102C129.697 32.1604 130.179 30.796 130.179 29.0169C130.179 27.2228 129.704 25.8508 128.754 24.901C127.805 23.9361 126.591 23.4536 125.113 23.4536H122.241V34.5124ZM125.181 37H119.527V20.966H125.204C127.465 20.966 129.327 21.6821 130.79 23.1144C132.267 24.5467 133.006 26.5142 133.006 29.0169C133.006 31.5046 132.267 33.457 130.79 34.8742C129.312 36.2914 127.443 37 125.181 37ZM136.82 30.2834H142.225C142.194 29.5898 141.946 29.0094 141.478 28.542C141.026 28.0746 140.37 27.8409 139.511 27.8409C138.727 27.8409 138.094 28.0897 137.611 28.5872C137.129 29.0697 136.865 29.6351 136.82 30.2834ZM142.519 33.1555L144.735 33.8565C144.418 34.8667 143.823 35.7034 142.948 36.3668C142.089 37.0151 141.026 37.3392 139.76 37.3392C138.192 37.3392 136.857 36.804 135.757 35.7336C134.671 34.6631 134.128 33.2308 134.128 31.4367C134.128 29.7481 134.656 28.3611 135.711 27.2756C136.782 26.19 138.041 25.6473 139.488 25.6473C141.177 25.6473 142.496 26.1674 143.446 27.2077C144.396 28.2329 144.871 29.62 144.871 31.3689C144.871 31.8363 144.848 32.1152 144.803 32.2056H136.752C136.782 33.0348 137.083 33.7208 137.656 34.2636C138.244 34.8063 138.945 35.0777 139.76 35.0777C141.177 35.0777 142.096 34.437 142.519 33.1555ZM145.727 34.0148L148.011 33.3816C148.056 33.9093 148.274 34.354 148.666 34.7159C149.058 35.0777 149.586 35.2586 150.25 35.2586C150.762 35.2586 151.162 35.138 151.448 34.8968C151.75 34.6556 151.9 34.354 151.9 33.9922C151.9 33.359 151.471 32.9519 150.611 32.771L148.983 32.4092C148.033 32.1981 147.302 31.8061 146.789 31.2332C146.277 30.6603 146.021 29.9818 146.021 29.1978C146.021 28.2329 146.413 27.4037 147.196 26.7102C147.98 26.0016 148.938 25.6473 150.069 25.6473C150.792 25.6473 151.433 25.7528 151.991 25.9639C152.549 26.175 152.978 26.4539 153.28 26.8007C153.597 27.1323 153.838 27.4565 154.004 27.7731C154.169 28.0897 154.275 28.4063 154.32 28.7229L152.104 29.3561C152.044 28.934 151.848 28.5571 151.516 28.2254C151.199 27.8786 150.717 27.7053 150.069 27.7053C149.616 27.7053 149.239 27.8334 148.938 28.0897C148.636 28.3309 148.486 28.6249 148.486 28.9717C148.486 29.5898 148.855 29.9743 149.594 30.1251L151.267 30.4643C152.292 30.6904 153.076 31.0975 153.619 31.6855C154.162 32.2735 154.433 32.9821 154.433 33.8113C154.433 34.731 154.064 35.5526 153.325 36.2763C152.601 36.9849 151.584 37.3392 150.272 37.3392C149.518 37.3392 148.84 37.2261 148.237 37C147.649 36.7739 147.181 36.4874 146.835 36.1406C146.503 35.7788 146.239 35.4245 146.043 35.0777C145.862 34.7159 145.757 34.3616 145.727 34.0148ZM158.957 37H156.356V25.9865H158.957V37ZM156.447 23.318C156.115 22.9863 155.949 22.5867 155.949 22.1194C155.949 21.652 156.115 21.2525 156.447 20.9208C156.778 20.574 157.178 20.4006 157.645 20.4006C158.128 20.4006 158.535 20.5665 158.867 20.8981C159.198 21.2298 159.364 21.6369 159.364 22.1194C159.364 22.5867 159.198 22.9863 158.867 23.318C158.535 23.6496 158.128 23.8155 157.645 23.8155C157.178 23.8155 156.778 23.6496 156.447 23.318ZM160.871 37.6106L163.291 36.9774C163.382 37.6709 163.676 38.2363 164.173 38.6735C164.686 39.1258 165.311 39.352 166.05 39.352C168.131 39.352 169.171 38.2514 169.171 36.0502V34.8968C168.915 35.3642 168.508 35.7486 167.95 36.0502C167.392 36.3517 166.736 36.5025 165.982 36.5025C164.505 36.5025 163.284 35.9974 162.319 34.9873C161.369 33.9771 160.894 32.6956 160.894 31.1427C160.894 29.6501 161.369 28.3837 162.319 27.3434C163.268 26.3031 164.49 25.783 165.982 25.783C167.595 25.783 168.681 26.3182 169.239 27.3886V25.9865H171.772V35.9597C171.772 37.588 171.312 38.9373 170.392 40.0078C169.473 41.0933 168.048 41.6361 166.118 41.6361C164.701 41.6361 163.51 41.2516 162.545 40.4827C161.58 39.7138 161.022 38.7564 160.871 37.6106ZM166.412 34.2636C167.256 34.2636 167.935 33.9847 168.447 33.4268C168.975 32.8539 169.239 32.0926 169.239 31.1427C169.239 30.208 168.975 29.4617 168.447 28.9038C167.92 28.3309 167.241 28.0445 166.412 28.0445C165.568 28.0445 164.874 28.3309 164.331 28.9038C163.804 29.4617 163.54 30.208 163.54 31.1427C163.54 32.0926 163.804 32.8539 164.331 33.4268C164.859 33.9847 165.553 34.2636 166.412 34.2636ZM176.925 30.6452V37H174.302V25.9865H176.857V27.4565C177.204 26.8534 177.664 26.4087 178.237 26.1222C178.825 25.8207 179.45 25.6699 180.114 25.6699C181.41 25.6699 182.398 26.077 183.076 26.8911C183.755 27.7053 184.094 28.7531 184.094 30.0346V37H181.471V30.4869C181.471 29.7481 181.29 29.1601 180.928 28.7229C180.566 28.2706 179.993 28.0445 179.209 28.0445C178.485 28.0445 177.92 28.2932 177.513 28.7908C177.121 29.2732 176.925 29.8914 176.925 30.6452Z" fill="url(#paint1_linear_225_220)"></path><defs><linearGradient id="paint0_linear_225_220" x1="-1.21881e-06" y1="28.5" x2="89.5879" y2="150.49" gradientUnits="userSpaceOnUse"><stop stop-color="#A9E207"></stop><stop offset="1" stop-color="#27CE50"></stop></linearGradient><linearGradient id="paint1_linear_225_220" x1="30" y1="28.5" x2="52.728" y2="89.1685" gradientUnits="userSpaceOnUse"><stop stop-color="#A9E207"></stop><stop offset="1" stop-color="#27CE50"></stop></linearGradient></defs></svg>